<?xml version="1.0" encoding="utf-8"?>
<!-- Generator: Adobe Illustrator 21.0.0, SVG Export Plug-In . SVG Version: 6.00 Build 0)  -->
<svg version="1.1" id="Ebene_1" xmlns="http://www.w3.org/2000/svg" xmlns:xlink="http://www.w3.org/1999/xlink" x="0px" y="0px"
	 viewBox="0 0 1034.646 623.622" enable-background="new 0 0 1034.646 623.622" xml:space="preserve">
<g id="Ebene_1_Kopie_Kopie" display="none">
	
		<line display="inline" fill="none" stroke="#C6C6C6" stroke-width="0.35" stroke-miterlimit="10" x1="517.131" y1="373.684" x2="517.133" y2="243.573"/>
	
		<line display="inline" fill="none" stroke="#C6C6C6" stroke-width="0.35" stroke-miterlimit="10" x1="522.8" y1="373.684" x2="522.802" y2="243.573"/>
	
		<line display="inline" fill="none" stroke="#C6C6C6" stroke-width="0.35" stroke-miterlimit="10" x1="528.469" y1="373.684" x2="528.471" y2="243.573"/>
	
		<line display="inline" fill="none" stroke="#C6C6C6" stroke-width="1.2" stroke-miterlimit="10" x1="534.138" y1="373.684" x2="534.14" y2="243.573"/>
	
		<line display="inline" fill="none" stroke="#C6C6C6" stroke-width="0.35" stroke-miterlimit="10" x1="539.807" y1="373.684" x2="539.809" y2="243.573"/>
	
		<line display="inline" fill="none" stroke="#C6C6C6" stroke-width="0.35" stroke-miterlimit="10" x1="545.476" y1="373.684" x2="545.478" y2="243.573"/>
	
		<line display="inline" fill="none" stroke="#C6C6C6" stroke-width="0.35" stroke-miterlimit="10" x1="551.146" y1="373.684" x2="551.147" y2="243.573"/>
	
		<line display="inline" fill="none" stroke="#C6C6C6" stroke-width="0.35" stroke-miterlimit="10" x1="556.814" y1="373.684" x2="556.816" y2="243.573"/>
	
		<line display="inline" fill="none" stroke="#C6C6C6" stroke-width="1.2" stroke-miterlimit="10" x1="562.483" y1="373.684" x2="562.485" y2="243.573"/>
	
		<line display="inline" fill="none" stroke="#C6C6C6" stroke-width="0.35" stroke-miterlimit="10" x1="568.153" y1="373.684" x2="568.155" y2="243.573"/>
	
		<line display="inline" fill="none" stroke="#C6C6C6" stroke-width="0.35" stroke-miterlimit="10" x1="573.822" y1="373.684" x2="573.824" y2="243.573"/>
	
		<line display="inline" fill="none" stroke="#C6C6C6" stroke-width="0.35" stroke-miterlimit="10" x1="579.491" y1="373.684" x2="579.493" y2="243.573"/>
	
		<line display="inline" fill="none" stroke="#C6C6C6" stroke-width="0.35" stroke-miterlimit="10" x1="585.161" y1="373.684" x2="585.163" y2="243.573"/>
	
		<line display="inline" fill="none" stroke="#C6C6C6" stroke-width="1.2" stroke-miterlimit="10" x1="590.83" y1="373.684" x2="590.832" y2="243.573"/>
	
		<line display="inline" fill="none" stroke="#C6C6C6" stroke-width="0.35" stroke-miterlimit="10" x1="596.499" y1="373.684" x2="596.501" y2="243.573"/>
	
		<line display="inline" fill="none" stroke="#C6C6C6" stroke-width="0.35" stroke-miterlimit="10" x1="602.171" y1="373.684" x2="602.173" y2="243.573"/>
	
		<line display="inline" fill="none" stroke="#C6C6C6" stroke-width="0.35" stroke-miterlimit="10" x1="607.84" y1="373.684" x2="607.842" y2="243.573"/>
	
		<line display="inline" fill="none" stroke="#C6C6C6" stroke-width="0.35" stroke-miterlimit="10" x1="610.675" y1="373.684" x2="610.677" y2="243.573"/>
	
		<line display="inline" fill="none" stroke="#C6C6C6" stroke-width="0.35" stroke-miterlimit="10" x1="511.462" y1="373.684" x2="511.462" y2="243.573"/>
	
		<line display="inline" fill="none" stroke="#C6C6C6" stroke-width="1.2" stroke-miterlimit="10" x1="505.791" y1="373.684" x2="505.791" y2="243.573"/>
	
		<line display="inline" fill="none" stroke="#C6C6C6" stroke-width="0.35" stroke-miterlimit="10" x1="500.122" y1="373.684" x2="500.122" y2="243.573"/>
	
		<line display="inline" fill="none" stroke="#C6C6C6" stroke-width="0.35" stroke-miterlimit="10" x1="494.452" y1="373.684" x2="494.452" y2="243.573"/>
	
		<line display="inline" fill="none" stroke="#C6C6C6" stroke-width="0.35" stroke-miterlimit="10" x1="488.782" y1="373.684" x2="488.782" y2="243.573"/>
	
		<line display="inline" fill="none" stroke="#C6C6C6" stroke-width="0.35" stroke-miterlimit="10" x1="483.114" y1="373.684" x2="483.114" y2="243.573"/>
	
		<line display="inline" fill="none" stroke="#C6C6C6" stroke-width="1.2" stroke-miterlimit="10" x1="477.444" y1="373.684" x2="477.444" y2="243.573"/>
	
		<line display="inline" fill="none" stroke="#C6C6C6" stroke-width="0.35" stroke-miterlimit="10" x1="471.774" y1="373.684" x2="471.774" y2="243.573"/>
	
		<line display="inline" fill="none" stroke="#C6C6C6" stroke-width="0.35" stroke-miterlimit="10" x1="466.106" y1="373.684" x2="466.106" y2="243.573"/>
	
		<line display="inline" fill="none" stroke="#C6C6C6" stroke-width="0.35" stroke-miterlimit="10" x1="460.437" y1="373.684" x2="460.437" y2="243.573"/>
	
		<line display="inline" fill="none" stroke="#C6C6C6" stroke-width="0.35" stroke-miterlimit="10" x1="454.767" y1="373.684" x2="454.767" y2="243.573"/>
	
		<line display="inline" fill="none" stroke="#C6C6C6" stroke-width="1.2" stroke-miterlimit="10" x1="449.098" y1="373.684" x2="449.098" y2="243.573"/>
	
		<line display="inline" fill="none" stroke="#C6C6C6" stroke-width="0.35" stroke-miterlimit="10" x1="443.429" y1="373.684" x2="443.429" y2="243.573"/>
	
		<line display="inline" fill="none" stroke="#C6C6C6" stroke-width="0.35" stroke-miterlimit="10" x1="437.76" y1="373.684" x2="437.76" y2="243.573"/>
	
		<line display="inline" fill="none" stroke="#C6C6C6" stroke-width="0.35" stroke-miterlimit="10" x1="432.092" y1="373.684" x2="432.092" y2="243.573"/>
	
		<line display="inline" fill="none" stroke="#C6C6C6" stroke-width="0.35" stroke-miterlimit="10" x1="426.423" y1="373.684" x2="426.423" y2="243.573"/>
	
		<line display="inline" fill="none" stroke="#C6C6C6" stroke-width="1.2" stroke-miterlimit="10" x1="420.753" y1="373.684" x2="420.753" y2="243.573"/>
	
		<line display="inline" fill="none" stroke="#C6C6C6" stroke-width="0.35" stroke-miterlimit="10" x1="415.082" y1="373.684" x2="415.082" y2="243.573"/>
	
		<line display="inline" fill="none" stroke="#C6C6C6" stroke-width="0.35" stroke-miterlimit="10" x1="409.413" y1="373.684" x2="409.413" y2="243.573"/>
	
		<line display="inline" fill="none" stroke="#C6C6C6" stroke-width="0.35" stroke-miterlimit="10" x1="403.743" y1="373.684" x2="403.743" y2="243.573"/>
	<g display="inline">
		
			<line fill="none" stroke="#C6C6C6" stroke-width="0.35" stroke-miterlimit="10" x1="514.296" y1="373.68" x2="514.298" y2="243.57"/>
		
			<line fill="none" stroke="#C6C6C6" stroke-width="0.35" stroke-miterlimit="10" x1="519.966" y1="373.68" x2="519.967" y2="243.57"/>
		
			<line fill="none" stroke="#C6C6C6" stroke-width="0.35" stroke-miterlimit="10" x1="525.635" y1="373.68" x2="525.636" y2="243.57"/>
		
			<line fill="none" stroke="#C6C6C6" stroke-width="0.35" stroke-miterlimit="10" x1="531.304" y1="373.68" x2="531.306" y2="243.57"/>
		
			<line fill="none" stroke="#C6C6C6" stroke-width="0.35" stroke-miterlimit="10" x1="536.972" y1="373.68" x2="536.974" y2="243.57"/>
		
			<line fill="none" stroke="#C6C6C6" stroke-width="0.35" stroke-miterlimit="10" x1="542.642" y1="373.68" x2="542.644" y2="243.57"/>
		
			<line fill="none" stroke="#C6C6C6" stroke-width="0.35" stroke-miterlimit="10" x1="548.312" y1="373.68" x2="548.313" y2="243.57"/>
		
			<line fill="none" stroke="#C6C6C6" stroke-width="0.35" stroke-miterlimit="10" x1="553.979" y1="373.68" x2="553.981" y2="243.57"/>
		
			<line fill="none" stroke="#C6C6C6" stroke-width="0.35" stroke-miterlimit="10" x1="559.649" y1="373.68" x2="559.651" y2="243.57"/>
		
			<line fill="none" stroke="#C6C6C6" stroke-width="0.35" stroke-miterlimit="10" x1="565.319" y1="373.68" x2="565.321" y2="243.57"/>
		
			<line fill="none" stroke="#C6C6C6" stroke-width="0.35" stroke-miterlimit="10" x1="570.987" y1="373.68" x2="570.989" y2="243.57"/>
		
			<line fill="none" stroke="#C6C6C6" stroke-width="0.35" stroke-miterlimit="10" x1="576.657" y1="373.68" x2="576.659" y2="243.57"/>
		
			<line fill="none" stroke="#C6C6C6" stroke-width="0.35" stroke-miterlimit="10" x1="582.327" y1="373.68" x2="582.329" y2="243.57"/>
		
			<line fill="none" stroke="#C6C6C6" stroke-width="0.35" stroke-miterlimit="10" x1="587.995" y1="373.68" x2="587.997" y2="243.57"/>
		
			<line fill="none" stroke="#C6C6C6" stroke-width="0.35" stroke-miterlimit="10" x1="593.665" y1="373.68" x2="593.667" y2="243.57"/>
		
			<line fill="none" stroke="#C6C6C6" stroke-width="0.35" stroke-miterlimit="10" x1="599.337" y1="373.68" x2="599.339" y2="243.57"/>
		
			<line fill="none" stroke="#C6C6C6" stroke-width="0.35" stroke-miterlimit="10" x1="605.005" y1="373.68" x2="605.007" y2="243.57"/>
		
			<line fill="none" stroke="#C6C6C6" stroke-width="0.35" stroke-miterlimit="10" x1="508.628" y1="373.68" x2="508.628" y2="243.57"/>
		
			<line fill="none" stroke="#C6C6C6" stroke-width="0.35" stroke-miterlimit="10" x1="502.956" y1="373.68" x2="502.956" y2="243.57"/>
		
			<line fill="none" stroke="#C6C6C6" stroke-width="0.35" stroke-miterlimit="10" x1="497.286" y1="373.68" x2="497.288" y2="243.57"/>
		
			<line fill="none" stroke="#C6C6C6" stroke-width="0.35" stroke-miterlimit="10" x1="491.617" y1="373.68" x2="491.617" y2="243.57"/>
		
			<line fill="none" stroke="#C6C6C6" stroke-width="0.35" stroke-miterlimit="10" x1="485.948" y1="373.68" x2="485.948" y2="243.57"/>
		
			<line fill="none" stroke="#C6C6C6" stroke-width="0.35" stroke-miterlimit="10" x1="480.278" y1="373.68" x2="480.28" y2="243.57"/>
		
			<line fill="none" stroke="#C6C6C6" stroke-width="0.35" stroke-miterlimit="10" x1="474.609" y1="373.68" x2="474.609" y2="243.57"/>
		
			<line fill="none" stroke="#C6C6C6" stroke-width="0.35" stroke-miterlimit="10" x1="468.94" y1="373.68" x2="468.94" y2="243.57"/>
		
			<line fill="none" stroke="#C6C6C6" stroke-width="0.35" stroke-miterlimit="10" x1="463.271" y1="373.68" x2="463.271" y2="243.57"/>
		
			<line fill="none" stroke="#C6C6C6" stroke-width="0.35" stroke-miterlimit="10" x1="457.602" y1="373.68" x2="457.602" y2="243.57"/>
		
			<line fill="none" stroke="#C6C6C6" stroke-width="0.35" stroke-miterlimit="10" x1="451.933" y1="373.68" x2="451.933" y2="243.57"/>
		
			<line fill="none" stroke="#C6C6C6" stroke-width="0.35" stroke-miterlimit="10" x1="446.263" y1="373.68" x2="446.263" y2="243.57"/>
		
			<line fill="none" stroke="#C6C6C6" stroke-width="0.35" stroke-miterlimit="10" x1="440.594" y1="373.68" x2="440.594" y2="243.57"/>
		
			<line fill="none" stroke="#C6C6C6" stroke-width="0.35" stroke-miterlimit="10" x1="434.926" y1="373.68" x2="434.926" y2="243.57"/>
		
			<line fill="none" stroke="#C6C6C6" stroke-width="0.35" stroke-miterlimit="10" x1="429.257" y1="373.68" x2="429.257" y2="243.57"/>
		
			<line fill="none" stroke="#C6C6C6" stroke-width="0.35" stroke-miterlimit="10" x1="423.588" y1="373.68" x2="423.588" y2="243.57"/>
		
			<line fill="none" stroke="#C6C6C6" stroke-width="0.35" stroke-miterlimit="10" x1="417.917" y1="373.68" x2="417.917" y2="243.57"/>
		
			<line fill="none" stroke="#C6C6C6" stroke-width="0.35" stroke-miterlimit="10" x1="412.247" y1="373.68" x2="412.247" y2="243.57"/>
		
			<line fill="none" stroke="#C6C6C6" stroke-width="0.35" stroke-miterlimit="10" x1="406.578" y1="373.68" x2="406.578" y2="243.57"/>
		
			<line fill="none" stroke="#C6C6C6" stroke-width="0.35" stroke-miterlimit="10" x1="400.909" y1="373.68" x2="400.909" y2="243.57"/>
	</g>
	
		<line display="inline" fill="none" stroke="#C6C6C6" stroke-width="0.35" stroke-miterlimit="10" x1="613.507" y1="249.101" x2="398.072" y2="249.101"/>
	
		<line display="inline" fill="none" stroke="#C6C6C6" stroke-width="0.35" stroke-miterlimit="10" x1="613.507" y1="254.77" x2="398.072" y2="254.77"/>
	
		<line display="inline" fill="none" stroke="#C6C6C6" stroke-width="0.35" stroke-miterlimit="10" x1="613.507" y1="260.439" x2="398.072" y2="260.439"/>
	
		<line display="inline" fill="none" stroke="#C6C6C6" stroke-width="1.2" stroke-miterlimit="10" x1="613.507" y1="266.108" x2="398.072" y2="266.108"/>
	
		<line display="inline" fill="none" stroke="#C6C6C6" stroke-width="0.35" stroke-miterlimit="10" x1="613.507" y1="271.777" x2="398.072" y2="271.777"/>
	
		<line display="inline" fill="none" stroke="#C6C6C6" stroke-width="0.35" stroke-miterlimit="10" x1="613.507" y1="277.447" x2="398.072" y2="277.447"/>
	
		<line display="inline" fill="none" stroke="#C6C6C6" stroke-width="0.35" stroke-miterlimit="10" x1="613.507" y1="283.116" x2="398.072" y2="283.116"/>
	
		<line display="inline" fill="none" stroke="#C6C6C6" stroke-width="0.35" stroke-miterlimit="10" x1="613.507" y1="288.785" x2="398.072" y2="288.785"/>
	
		<line display="inline" fill="none" stroke="#C6C6C6" stroke-width="1.2" stroke-miterlimit="10" x1="613.507" y1="294.455" x2="398.072" y2="294.455"/>
	
		<line display="inline" fill="none" stroke="#C6C6C6" stroke-width="0.35" stroke-miterlimit="10" x1="613.507" y1="300.124" x2="398.072" y2="300.124"/>
	
		<line display="inline" fill="none" stroke="#C6C6C6" stroke-width="0.35" stroke-miterlimit="10" x1="613.507" y1="305.793" x2="398.072" y2="305.793"/>
	
		<line display="inline" fill="none" stroke="#C6C6C6" stroke-width="0.35" stroke-miterlimit="10" x1="613.507" y1="311.463" x2="398.072" y2="311.463"/>
	
		<line display="inline" fill="none" stroke="#C6C6C6" stroke-width="0.35" stroke-miterlimit="10" x1="613.507" y1="317.131" x2="398.072" y2="317.131"/>
	
		<line display="inline" fill="none" stroke="#C6C6C6" stroke-width="1.2" stroke-miterlimit="10" x1="613.507" y1="322.801" x2="398.072" y2="322.801"/>
	
		<line display="inline" fill="none" stroke="#C6C6C6" stroke-width="0.35" stroke-miterlimit="10" x1="613.507" y1="328.471" x2="398.072" y2="328.471"/>
	
		<line display="inline" fill="none" stroke="#C6C6C6" stroke-width="0.35" stroke-miterlimit="10" x1="613.507" y1="334.141" x2="398.072" y2="334.141"/>
	
		<line display="inline" fill="none" stroke="#C6C6C6" stroke-width="0.35" stroke-miterlimit="10" x1="613.507" y1="339.811" x2="398.072" y2="339.811"/>
	
		<line display="inline" fill="none" stroke="#C6C6C6" stroke-width="0.35" stroke-miterlimit="10" x1="613.507" y1="345.479" x2="398.072" y2="345.479"/>
	
		<line display="inline" fill="none" stroke="#C6C6C6" stroke-width="1.2" stroke-miterlimit="10" x1="613.507" y1="351.146" x2="398.072" y2="351.146"/>
	
		<line display="inline" fill="none" stroke="#C6C6C6" stroke-width="0.35" stroke-miterlimit="10" x1="613.507" y1="356.816" x2="398.072" y2="356.816"/>
	
		<line display="inline" fill="none" stroke="#C6C6C6" stroke-width="0.35" stroke-miterlimit="10" x1="613.507" y1="362.486" x2="398.072" y2="362.486"/>
	
		<line display="inline" fill="none" stroke="#C6C6C6" stroke-width="0.35" stroke-miterlimit="10" x1="613.507" y1="368.154" x2="398.072" y2="368.154"/>
	
		<line display="inline" fill="none" stroke="#C6C6C6" stroke-width="0.35" stroke-miterlimit="10" x1="613.507" y1="370.986" x2="398.072" y2="370.986"/>
	
		<line display="inline" fill="none" stroke="#C6C6C6" stroke-width="0.35" stroke-miterlimit="10" x1="613.508" y1="246.263" x2="398.074" y2="246.263"/>
	
		<line display="inline" fill="none" stroke="#C6C6C6" stroke-width="0.35" stroke-miterlimit="10" x1="613.508" y1="251.932" x2="398.074" y2="251.932"/>
	
		<line display="inline" fill="none" stroke="#C6C6C6" stroke-width="0.35" stroke-miterlimit="10" x1="613.508" y1="257.602" x2="398.074" y2="257.602"/>
	
		<line display="inline" fill="none" stroke="#C6C6C6" stroke-width="0.272" stroke-miterlimit="10" x1="613.508" y1="263.271" x2="398.074" y2="263.271"/>
	
		<line display="inline" fill="none" stroke="#C6C6C6" stroke-width="0.35" stroke-miterlimit="10" x1="613.508" y1="268.94" x2="398.074" y2="268.94"/>
	
		<line display="inline" fill="none" stroke="#C6C6C6" stroke-width="0.35" stroke-miterlimit="10" x1="613.508" y1="274.61" x2="398.074" y2="274.61"/>
	
		<line display="inline" fill="none" stroke="#C6C6C6" stroke-width="0.35" stroke-miterlimit="10" x1="613.508" y1="280.279" x2="398.074" y2="280.279"/>
	
		<line display="inline" fill="none" stroke="#C6C6C6" stroke-width="0.35" stroke-miterlimit="10" x1="613.508" y1="285.948" x2="398.074" y2="285.948"/>
	
		<line display="inline" fill="none" stroke="#C6C6C6" stroke-width="0.272" stroke-miterlimit="10" x1="613.508" y1="291.618" x2="398.074" y2="291.618"/>
	
		<line display="inline" fill="none" stroke="#C6C6C6" stroke-width="0.35" stroke-miterlimit="10" x1="613.508" y1="297.287" x2="398.074" y2="297.287"/>
	
		<line display="inline" fill="none" stroke="#C6C6C6" stroke-width="0.35" stroke-miterlimit="10" x1="613.508" y1="302.956" x2="398.074" y2="302.956"/>
	
		<line display="inline" fill="none" stroke="#C6C6C6" stroke-width="0.35" stroke-miterlimit="10" x1="613.508" y1="308.625" x2="398.074" y2="308.625"/>
	
		<line display="inline" fill="none" stroke="#C6C6C6" stroke-width="0.35" stroke-miterlimit="10" x1="613.508" y1="314.295" x2="398.074" y2="314.295"/>
	
		<line display="inline" fill="none" stroke="#C6C6C6" stroke-width="0.272" stroke-miterlimit="10" x1="613.508" y1="319.965" x2="398.074" y2="319.965"/>
	
		<line display="inline" fill="none" stroke="#C6C6C6" stroke-width="0.35" stroke-miterlimit="10" x1="613.508" y1="325.633" x2="398.074" y2="325.633"/>
	
		<line display="inline" fill="none" stroke="#C6C6C6" stroke-width="0.35" stroke-miterlimit="10" x1="613.508" y1="331.303" x2="398.074" y2="331.303"/>
	
		<line display="inline" fill="none" stroke="#C6C6C6" stroke-width="0.35" stroke-miterlimit="10" x1="613.508" y1="336.973" x2="398.074" y2="336.973"/>
	
		<line display="inline" fill="none" stroke="#C6C6C6" stroke-width="0.35" stroke-miterlimit="10" x1="613.508" y1="342.643" x2="398.074" y2="342.643"/>
	
		<line display="inline" fill="none" stroke="#C6C6C6" stroke-width="0.272" stroke-miterlimit="10" x1="613.508" y1="348.311" x2="398.074" y2="348.311"/>
	
		<line display="inline" fill="none" stroke="#C6C6C6" stroke-width="0.35" stroke-miterlimit="10" x1="613.508" y1="353.98" x2="398.074" y2="353.98"/>
	
		<line display="inline" fill="none" stroke="#C6C6C6" stroke-width="0.35" stroke-miterlimit="10" x1="613.508" y1="359.648" x2="398.074" y2="359.648"/>
	
		<line display="inline" fill="none" stroke="#C6C6C6" stroke-width="0.35" stroke-miterlimit="10" x1="613.508" y1="365.318" x2="398.074" y2="365.318"/>
	<g display="inline">
		<path fill="#C6C6C6" d="M613.158,243.779v129.696H398.426V243.779H613.158 M613.509,243.429H398.074v130.395h215.435V243.429
			L613.509,243.429z"/>
	</g>
</g>
<g id="Hilfslinien" display="none">
</g>
<g>
	<g id="Horizontal_x5F_4_1_">
		<line fill="none" x1="572.523" y1="628.606" x2="572.532" y2="-4.965"/>
		
			<line fill="none" stroke="#000000" stroke-width="0.35" stroke-miterlimit="10" x1="600.125" y1="628.606" x2="600.135" y2="-4.965"/>
		<line fill="none" x1="627.725" y1="628.606" x2="627.736" y2="-4.965"/>
		<line fill="none" x1="655.329" y1="628.606" x2="655.336" y2="-4.965"/>
		
			<line fill="none" stroke="#000000" stroke-width="0.35" stroke-miterlimit="10" x1="682.929" y1="628.606" x2="682.936" y2="-4.965"/>
		<line fill="none" x1="710.526" y1="628.606" x2="710.532" y2="-4.965"/>
		<line fill="none" x1="738.129" y1="628.606" x2="738.139" y2="-4.965"/>
		
			<line fill="none" stroke="#000000" stroke-width="0.35" stroke-miterlimit="10" x1="765.727" y1="628.606" x2="765.737" y2="-4.965"/>
		<line fill="none" x1="793.324" y1="628.606" x2="793.336" y2="-4.965"/>
		<line fill="none" x1="820.93" y1="628.606" x2="820.938" y2="-4.965"/>
		
			<line fill="none" stroke="#000000" stroke-width="0.35" stroke-miterlimit="10" x1="848.526" y1="628.606" x2="848.536" y2="-4.965"/>
		<line fill="none" x1="876.127" y1="628.606" x2="876.133" y2="-4.965"/>
		<line fill="none" x1="903.729" y1="628.606" x2="903.74" y2="-4.965"/>
		
			<line fill="none" stroke="#000000" stroke-width="0.35" stroke-miterlimit="10" x1="931.328" y1="628.606" x2="931.337" y2="-4.965"/>
		<line fill="none" x1="958.925" y1="628.606" x2="958.935" y2="-4.965"/>
		<line fill="none" x1="986.529" y1="628.606" x2="986.539" y2="-4.965"/>
		
			<line fill="none" stroke="#000000" stroke-width="0.35" stroke-miterlimit="10" x1="1014.127" y1="628.606" x2="1014.137" y2="-4.965"/>
		<line fill="none" x1="1027.929" y1="628.606" x2="1027.936" y2="-4.965"/>
		<line fill="none" x1="544.925" y1="628.606" x2="544.925" y2="-4.965"/>
		
			<line fill="none" stroke="#000000" stroke-width="0.35" stroke-miterlimit="10" x1="517.326" y1="628.606" x2="517.326" y2="-4.965"/>
		<line fill="none" x1="489.727" y1="628.606" x2="489.727" y2="-4.965"/>
		<line fill="none" x1="462.123" y1="628.606" x2="462.123" y2="-4.965"/>
		
			<line fill="none" stroke="#000000" stroke-width="0.35" stroke-miterlimit="10" x1="434.519" y1="628.606" x2="434.519" y2="-4.965"/>
		<line fill="none" x1="406.926" y1="628.606" x2="406.926" y2="-4.965"/>
		<line fill="none" x1="379.324" y1="628.606" x2="379.324" y2="-4.965"/>
		
			<line fill="none" stroke="#000000" stroke-width="0.35" stroke-miterlimit="10" x1="351.722" y1="628.606" x2="351.722" y2="-4.965"/>
		<line fill="none" x1="324.127" y1="628.606" x2="324.127" y2="-4.965"/>
		<line fill="none" x1="296.522" y1="628.606" x2="296.522" y2="-4.965"/>
		
			<line fill="none" stroke="#000000" stroke-width="0.35" stroke-miterlimit="10" x1="268.921" y1="628.606" x2="268.921" y2="-4.965"/>
		<line fill="none" x1="241.321" y1="628.606" x2="241.321" y2="-4.965"/>
		<line fill="none" x1="213.723" y1="628.606" x2="213.723" y2="-4.965"/>
		
			<line fill="none" stroke="#000000" stroke-width="0.35" stroke-miterlimit="10" x1="186.12" y1="628.606" x2="186.12" y2="-4.965"/>
		<line fill="none" x1="158.52" y1="628.606" x2="158.52" y2="-4.965"/>
		<line fill="none" x1="130.92" y1="628.606" x2="130.92" y2="-4.965"/>
		
			<line fill="none" stroke="#000000" stroke-width="0.35" stroke-miterlimit="10" x1="103.32" y1="628.606" x2="103.32" y2="-4.965"/>
		<line fill="none" x1="75.72" y1="628.606" x2="75.72" y2="-4.965"/>
		<line fill="none" x1="48.123" y1="628.606" x2="48.123" y2="-4.965"/>
		<line fill="none" stroke="#000000" stroke-width="0.35" stroke-miterlimit="10" x1="20.52" y1="628.606" x2="20.52" y2="-4.965"/>
		<g>
			
				<line fill="none" stroke="#000000" stroke-width="0.35" stroke-miterlimit="10" x1="558.72" y1="628.592" x2="558.731" y2="-4.979"/>
			<line fill="none" x1="586.327" y1="628.592" x2="586.335" y2="-4.979"/>
			<line fill="none" x1="613.927" y1="628.592" x2="613.938" y2="-4.979"/>
			
				<line fill="none" stroke="#000000" stroke-width="0.35" stroke-miterlimit="10" x1="641.532" y1="628.592" x2="641.539" y2="-4.979"/>
			<line fill="none" x1="669.126" y1="628.592" x2="669.135" y2="-4.979"/>
			<line fill="none" x1="696.729" y1="628.592" x2="696.735" y2="-4.979"/>
			
				<line fill="none" stroke="#000000" stroke-width="0.35" stroke-miterlimit="10" x1="724.331" y1="628.592" x2="724.342" y2="-4.979"/>
			<line fill="none" x1="751.925" y1="628.592" x2="751.936" y2="-4.979"/>
			<line fill="none" x1="779.528" y1="628.592" x2="779.537" y2="-4.979"/>
			
				<line fill="none" stroke="#000000" stroke-width="0.35" stroke-miterlimit="10" x1="807.133" y1="628.592" x2="807.141" y2="-4.979"/>
			<line fill="none" x1="834.726" y1="628.592" x2="834.735" y2="-4.979"/>
			<line fill="none" x1="862.33" y1="628.592" x2="862.339" y2="-4.979"/>
			
				<line fill="none" stroke="#000000" stroke-width="0.35" stroke-miterlimit="10" x1="889.933" y1="628.592" x2="889.941" y2="-4.979"/>
			<line fill="none" x1="917.526" y1="628.592" x2="917.537" y2="-4.979"/>
			<line fill="none" x1="945.127" y1="628.592" x2="945.14" y2="-4.979"/>
			
				<line fill="none" stroke="#000000" stroke-width="0.35" stroke-miterlimit="10" x1="972.732" y1="628.592" x2="972.741" y2="-4.979"/>
			<line fill="none" x1="1000.327" y1="628.592" x2="1000.336" y2="-4.979"/>
			<line fill="none" x1="531.129" y1="628.592" x2="531.129" y2="-4.979"/>
			<line fill="none" x1="503.527" y1="628.592" x2="503.527" y2="-4.979"/>
			
				<line fill="none" stroke="#000000" stroke-width="0.35" stroke-miterlimit="10" x1="475.92" y1="628.592" x2="475.931" y2="-4.979"/>
			<line fill="none" x1="448.324" y1="628.592" x2="448.324" y2="-4.979"/>
			<line fill="none" x1="420.725" y1="628.592" x2="420.725" y2="-4.979"/>
			
				<line fill="none" stroke="#000000" stroke-width="0.35" stroke-miterlimit="10" x1="393.123" y1="628.592" x2="393.129" y2="-4.979"/>
			<line fill="none" x1="365.522" y1="628.592" x2="365.522" y2="-4.979"/>
			<line fill="none" x1="337.926" y1="628.592" x2="337.926" y2="-4.979"/>
			
				<line fill="none" stroke="#000000" stroke-width="0.35" stroke-miterlimit="10" x1="310.32" y1="628.592" x2="310.32" y2="-4.979"/>
			<line fill="none" x1="282.721" y1="628.592" x2="282.721" y2="-4.979"/>
			<line fill="none" x1="255.124" y1="628.592" x2="255.124" y2="-4.979"/>
			
				<line fill="none" stroke="#000000" stroke-width="0.35" stroke-miterlimit="10" x1="227.523" y1="628.592" x2="227.523" y2="-4.979"/>
			<line fill="none" x1="199.923" y1="628.592" x2="199.923" y2="-4.979"/>
			<line fill="none" x1="172.324" y1="628.592" x2="172.324" y2="-4.979"/>
			
				<line fill="none" stroke="#000000" stroke-width="0.35" stroke-miterlimit="10" x1="144.719" y1="628.592" x2="144.719" y2="-4.979"/>
			<line fill="none" x1="117.122" y1="628.592" x2="117.122" y2="-4.979"/>
			<line fill="none" x1="89.523" y1="628.592" x2="89.523" y2="-4.979"/>
			
				<line fill="none" stroke="#000000" stroke-width="0.35" stroke-miterlimit="10" x1="61.92" y1="628.592" x2="61.92" y2="-4.979"/>
			<line fill="none" x1="34.323" y1="628.592" x2="34.323" y2="-4.979"/>
			<line fill="none" x1="6.722" y1="628.592" x2="6.722" y2="-4.979"/>
		</g>
		<g>
			
				<line fill="none" stroke="#000000" stroke-width="1.2" stroke-miterlimit="10" x1="103.32" y1="63.349" x2="103.32" y2="228.988"/>
			<line fill="none" stroke="#000000" stroke-width="1.2" stroke-miterlimit="10" x1="20.52" y1="21.951" x2="20.52" y2="187.59"/>
			
				<line fill="none" stroke="#000000" stroke-width="1.2" stroke-miterlimit="10" x1="186.12" y1="104.757" x2="186.12" y2="270.412"/>
			
				<line fill="none" stroke="#000000" stroke-width="1.2" stroke-miterlimit="10" x1="268.921" y1="146.165" x2="268.921" y2="311.816"/>
			
				<line fill="none" stroke="#000000" stroke-width="1.2" stroke-miterlimit="10" x1="351.722" y1="187.585" x2="351.722" y2="353.241"/>
			
				<line fill="none" stroke="#000000" stroke-width="1.2" stroke-miterlimit="10" x1="434.519" y1="228.981" x2="434.519" y2="394.635"/>
			
				<line fill="none" stroke="#000000" stroke-width="1.2" stroke-miterlimit="10" x1="517.326" y1="270.412" x2="517.326" y2="436.063"/>
			
				<line fill="none" stroke="#000000" stroke-width="1.2" stroke-miterlimit="10" x1="600.125" y1="311.796" x2="600.125" y2="477.451"/>
			
				<line fill="none" stroke="#000000" stroke-width="1.2" stroke-miterlimit="10" x1="682.936" y1="353.215" x2="682.936" y2="518.873"/>
			
				<line fill="none" stroke="#000000" stroke-width="1.2" stroke-miterlimit="10" x1="765.727" y1="394.624" x2="765.727" y2="560.277"/>
			
				<line fill="none" stroke="#000000" stroke-width="1.2" stroke-miterlimit="10" x1="848.536" y1="436.042" x2="848.536" y2="601.693"/>
			
				<line fill="none" stroke="#000000" stroke-width="1.2" stroke-miterlimit="10" x1="931.328" y1="477.447" x2="931.328" y2="628.606"/>
			
				<line fill="none" stroke="#000000" stroke-width="1.2" stroke-miterlimit="10" x1="1014.127" y1="518.873" x2="1014.127" y2="628.606"/>
		</g>
		<line fill="none" stroke="#000000" stroke-width="1.2" stroke-miterlimit="10" x1="186.12" y1="-4.965" x2="186.12" y2="21.896"/>
		
			<line fill="none" stroke="#000000" stroke-width="1.2" stroke-miterlimit="10" x1="268.921" y1="-4.965" x2="268.921" y2="63.301"/>
		
			<line fill="none" stroke="#000000" stroke-width="1.2" stroke-miterlimit="10" x1="351.722" y1="-4.965" x2="351.722" y2="104.725"/>
		
			<line fill="none" stroke="#000000" stroke-width="1.2" stroke-miterlimit="10" x1="434.519" y1="-4.965" x2="434.519" y2="146.122"/>
		
			<line fill="none" stroke="#000000" stroke-width="1.2" stroke-miterlimit="10" x1="517.326" y1="21.896" x2="517.326" y2="187.551"/>
		
			<line fill="none" stroke="#000000" stroke-width="1.2" stroke-miterlimit="10" x1="600.125" y1="63.282" x2="600.125" y2="228.937"/>
		
			<line fill="none" stroke="#000000" stroke-width="1.2" stroke-miterlimit="10" x1="682.936" y1="104.702" x2="682.936" y2="270.356"/>
		
			<line fill="none" stroke="#000000" stroke-width="1.2" stroke-miterlimit="10" x1="765.727" y1="146.107" x2="765.727" y2="311.76"/>
		
			<line fill="none" stroke="#000000" stroke-width="1.2" stroke-miterlimit="10" x1="848.536" y1="187.526" x2="848.536" y2="353.183"/>
		
			<line fill="none" stroke="#000000" stroke-width="1.2" stroke-miterlimit="10" x1="931.328" y1="228.933" x2="931.328" y2="394.825"/>
		
			<line fill="none" stroke="#000000" stroke-width="1.2" stroke-miterlimit="10" x1="1014.127" y1="270.356" x2="1014.127" y2="435.993"/>
		
			<line fill="none" stroke="#000000" stroke-width="1.2" stroke-miterlimit="10" x1="682.936" y1="-4.979" x2="682.936" y2="21.954"/>
		
			<line fill="none" stroke="#000000" stroke-width="1.2" stroke-miterlimit="10" x1="765.727" y1="-4.965" x2="765.727" y2="63.358"/>
		
			<line fill="none" stroke="#000000" stroke-width="1.2" stroke-miterlimit="10" x1="848.536" y1="-4.965" x2="848.536" y2="104.781"/>
		
			<line fill="none" stroke="#000000" stroke-width="1.2" stroke-miterlimit="10" x1="931.328" y1="-4.965" x2="931.328" y2="146.424"/>
		
			<line fill="none" stroke="#000000" stroke-width="1.2" stroke-miterlimit="10" x1="1014.127" y1="21.954" x2="1014.127" y2="187.59"/>
		
			<line fill="none" stroke="#000000" stroke-width="1.2" stroke-miterlimit="10" x1="103.32" y1="312.155" x2="103.32" y2="477.794"/>
		<line fill="none" stroke="#000000" stroke-width="1.2" stroke-miterlimit="10" x1="20.52" y1="270.758" x2="20.52" y2="436.398"/>
		
			<line fill="none" stroke="#000000" stroke-width="1.2" stroke-miterlimit="10" x1="186.12" y1="353.564" x2="186.12" y2="519.218"/>
		
			<line fill="none" stroke="#000000" stroke-width="1.2" stroke-miterlimit="10" x1="103.32" y1="560.023" x2="103.32" y2="628.592"/>
		<line fill="none" stroke="#000000" stroke-width="1.2" stroke-miterlimit="10" x1="20.52" y1="518.625" x2="20.52" y2="628.592"/>
		
			<line fill="none" stroke="#000000" stroke-width="1.2" stroke-miterlimit="10" x1="186.12" y1="601.429" x2="186.12" y2="628.606"/>
		
			<line fill="none" stroke="#000000" stroke-width="1.2" stroke-miterlimit="10" x1="268.921" y1="394.973" x2="268.921" y2="560.623"/>
		
			<line fill="none" stroke="#000000" stroke-width="1.2" stroke-miterlimit="10" x1="351.722" y1="436.396" x2="351.722" y2="602.046"/>
		
			<line fill="none" stroke="#000000" stroke-width="1.2" stroke-miterlimit="10" x1="434.519" y1="477.789" x2="434.519" y2="628.606"/>
		
			<line fill="none" stroke="#000000" stroke-width="1.2" stroke-miterlimit="10" x1="517.326" y1="519.218" x2="517.326" y2="628.606"/>
		
			<line fill="none" stroke="#000000" stroke-width="1.2" stroke-miterlimit="10" x1="600.125" y1="560.605" x2="600.125" y2="628.592"/>
		
			<line fill="none" stroke="#000000" stroke-width="1.2" stroke-miterlimit="10" x1="682.936" y1="602.023" x2="682.936" y2="628.592"/>
	</g>
	<g id="Vertikal_x5F_4">
		
			<line fill="none" stroke="#000000" stroke-width="0.35" stroke-miterlimit="10" x1="1040.804" y1="21.951" x2="-6.275" y2="21.951"/>
		<line fill="none" x1="1041.716" y1="49.556" x2="-7.087" y2="49.556"/>
		<line fill="none" x1="1041.716" y1="77.163" x2="-7.087" y2="77.163"/>
		
			<line fill="none" stroke="#000000" stroke-width="0.35" stroke-miterlimit="10" x1="1040.804" y1="104.77" x2="-6.125" y2="104.77"/>
		<line fill="none" x1="1041.716" y1="132.376" x2="-7.087" y2="132.376"/>
		<line fill="none" x1="1041.716" y1="159.986" x2="-7.087" y2="159.986"/>
		
			<line fill="none" stroke="#000000" stroke-width="0.35" stroke-miterlimit="10" x1="1040.804" y1="187.59" x2="-6.427" y2="187.59"/>
		<line fill="none" x1="1041.716" y1="215.195" x2="-7.087" y2="215.195"/>
		<line fill="none" x1="1041.716" y1="242.805" x2="-7.087" y2="242.805"/>
		
			<line fill="none" stroke="#000000" stroke-width="0.35" stroke-miterlimit="10" x1="1040.804" y1="270.412" x2="-6.048" y2="270.412"/>
		<line fill="none" x1="1041.716" y1="298.017" x2="-7.087" y2="298.017"/>
		<line fill="none" x1="1041.716" y1="325.625" x2="-7.087" y2="325.625"/>
		
			<line fill="none" stroke="#000000" stroke-width="0.35" stroke-miterlimit="10" x1="1040.804" y1="353.229" x2="-6.048" y2="353.229"/>
		<line fill="none" x1="1041.716" y1="380.841" x2="-7.087" y2="380.841"/>
		<line fill="none" x1="1041.716" y1="408.446" x2="-7.087" y2="408.446"/>
		
			<line fill="none" stroke="#000000" stroke-width="0.35" stroke-miterlimit="10" x1="1040.804" y1="436.049" x2="-6.353" y2="436.049"/>
		<line fill="none" x1="1041.716" y1="463.662" x2="-7.087" y2="463.662"/>
		<line fill="none" x1="1041.716" y1="491.266" x2="-7.087" y2="491.266"/>
		
			<line fill="none" stroke="#000000" stroke-width="0.35" stroke-miterlimit="10" x1="1040.804" y1="518.873" x2="-6.2" y2="518.873"/>
		<line fill="none" x1="1041.716" y1="546.481" x2="-7.087" y2="546.481"/>
		<line fill="none" x1="1041.716" y1="574.084" x2="-7.087" y2="574.084"/>
		
			<line fill="none" stroke="#000000" stroke-width="0.35" stroke-miterlimit="10" x1="1040.804" y1="601.689" x2="-6.048" y2="601.689"/>
		<line fill="none" x1="1041.716" y1="615.481" x2="-7.087" y2="615.481"/>
		<line fill="none" x1="1041.726" y1="8.134" x2="-7.078" y2="8.134"/>
		<line fill="none" x1="1041.726" y1="35.737" x2="-7.078" y2="35.737"/>
		
			<line fill="none" stroke="#000000" stroke-width="0.35" stroke-miterlimit="10" x1="1040.804" y1="63.349" x2="-6.503" y2="63.349"/>
		<line fill="none" x1="1041.726" y1="90.955" x2="-7.078" y2="90.955"/>
		<line fill="none" x1="1041.726" y1="118.56" x2="-7.078" y2="118.56"/>
		
			<line fill="none" stroke="#000000" stroke-width="0.35" stroke-miterlimit="10" x1="1040.804" y1="146.169" x2="-6.125" y2="146.169"/>
		<line fill="none" x1="1041.726" y1="173.773" x2="-7.078" y2="173.773"/>
		<line fill="none" x1="1041.726" y1="201.378" x2="-7.078" y2="201.378"/>
		
			<line fill="none" stroke="#000000" stroke-width="0.35" stroke-miterlimit="10" x1="1040.804" y1="228.988" x2="-6.353" y2="228.988"/>
		<line fill="none" x1="1041.726" y1="256.594" x2="-7.078" y2="256.594"/>
		<line fill="none" x1="1041.726" y1="284.199" x2="-7.078" y2="284.199"/>
		
			<line fill="none" stroke="#000000" stroke-width="0.35" stroke-miterlimit="10" x1="1040.804" y1="311.809" x2="-6.275" y2="311.809"/>
		<line fill="none" x1="1041.726" y1="339.416" x2="-7.078" y2="339.416"/>
		<line fill="none" x1="1041.726" y1="367.025" x2="-7.078" y2="367.025"/>
		
			<line fill="none" stroke="#000000" stroke-width="0.35" stroke-miterlimit="10" x1="1040.804" y1="394.631" x2="-6.427" y2="394.631"/>
		<line fill="none" x1="1041.726" y1="422.237" x2="-7.078" y2="422.237"/>
		<line fill="none" x1="1041.726" y1="449.844" x2="-7.078" y2="449.844"/>
		
			<line fill="none" stroke="#000000" stroke-width="0.35" stroke-miterlimit="10" x1="1040.804" y1="477.451" x2="-6.125" y2="477.451"/>
		<line fill="none" x1="1041.726" y1="505.056" x2="-7.078" y2="505.056"/>
		<line fill="none" x1="1041.726" y1="532.665" x2="-7.078" y2="532.665"/>
		
			<line fill="none" stroke="#000000" stroke-width="0.35" stroke-miterlimit="10" x1="1040.804" y1="560.269" x2="-6.427" y2="560.269"/>
		<line fill="none" x1="1041.726" y1="587.876" x2="-7.078" y2="587.876"/>
	</g>
	<g id="Diagonal_x5F_4">
		<g>
			<g>
				<g>
					<defs>
						<rect id="SVGID_1_" x="-7.078" y="-5.669" width="1048.811" height="634.961"/>
					</defs>
					<clipPath id="SVGID_2_">
						<use xlink:href="#SVGID_1_"  overflow="visible"/>
					</clipPath>
					<g clip-path="url(#SVGID_2_)">
						
							<line fill="none" stroke="#000000" stroke-width="0.35" stroke-miterlimit="10" x1="-6.381" y1="614.961" x2="1046.433" y2="88.058"/>
						<line fill="none" x1="-6.346" y1="656.767" x2="1040.49" y2="132.86"/>
						
							<line fill="none" stroke="#000000" stroke-width="0.35" stroke-miterlimit="10" x1="-6.181" y1="698.054" x2="1040.654" y2="174.146"/>
						<line fill="none" x1="-6.346" y1="739.343" x2="1040.49" y2="215.438"/>
						
							<line fill="none" stroke="#000000" stroke-width="0.35" stroke-miterlimit="10" x1="-4.972" y1="780.431" x2="1041.865" y2="256.527"/>
						<line fill="none" x1="-6.346" y1="822.521" x2="1040.49" y2="298.618"/>
						
							<line fill="none" stroke="#000000" stroke-width="0.35" stroke-miterlimit="10" x1="-6.617" y1="863.703" x2="1047.497" y2="336.083"/>
						<line fill="none" x1="-6.346" y1="905.686" x2="1040.49" y2="381.772"/>
						
							<line fill="none" stroke="#000000" stroke-width="0.35" stroke-miterlimit="10" x1="-7.703" y1="947.561" x2="1049.628" y2="418.332"/>
						<line fill="none" x1="-6.346" y1="988.172" x2="1040.49" y2="464.259"/>
						
							<line fill="none" stroke="#000000" stroke-width="0.35" stroke-miterlimit="10" x1="-6.623" y1="1029.825" x2="1047.243" y2="502.365"/>
						<line fill="none" x1="-6.346" y1="1070.989" x2="1040.49" y2="547.081"/>
						
							<line fill="none" stroke="#000000" stroke-width="0.35" stroke-miterlimit="10" x1="-1.608" y1="1110.311" x2="1045.228" y2="586.396"/>
						<line fill="none" x1="-6.346" y1="573.686" x2="1040.49" y2="49.777"/>
						
							<line fill="none" stroke="#000000" stroke-width="0.35" stroke-miterlimit="10" x1="-6.457" y1="532.276" x2="1045.22" y2="5.886"/>
						<line fill="none" x1="-6.346" y1="490.895" x2="1040.49" y2="-33.015"/>
						
							<line fill="none" stroke="#000000" stroke-width="0.35" stroke-miterlimit="10" x1="-6.807" y1="449.852" x2="1040.029" y2="-74.062"/>
						<line fill="none" x1="-6.346" y1="407.905" x2="1040.49" y2="-116.007"/>
						
							<line fill="none" stroke="#000000" stroke-width="0.35" stroke-miterlimit="10" x1="-6.427" y1="366.64" x2="1040.411" y2="-157.267"/>
						<line fill="none" x1="-6.346" y1="325.234" x2="1040.49" y2="-198.674"/>
						
							<line fill="none" stroke="#000000" stroke-width="0.35" stroke-miterlimit="10" x1="-6.641" y1="284.084" x2="1040.197" y2="-239.829"/>
						<line fill="none" x1="-6.346" y1="242.568" x2="1040.49" y2="-281.343"/>
						
							<line fill="none" stroke="#000000" stroke-width="0.35" stroke-miterlimit="10" x1="-6.868" y1="200.959" x2="1039.968" y2="-322.951"/>
						<line fill="none" x1="-6.346" y1="159.9" x2="1040.49" y2="-364.008"/>
						
							<line fill="none" stroke="#000000" stroke-width="0.35" stroke-miterlimit="10" x1="-6.807" y1="118.257" x2="1040.029" y2="-405.65"/>
						<line fill="none" x1="-6.346" y1="77.232" x2="1040.49" y2="-446.677"/>
						
							<line fill="none" stroke="#000000" stroke-width="0.35" stroke-miterlimit="10" x1="-6.807" y1="35.591" x2="1040.029" y2="-488.317"/>
					</g>
				</g>
			</g>
			<g>
				<g>
					<defs>
						<rect id="SVGID_3_" x="-7.078" y="-5.669" width="1048.811" height="634.961"/>
					</defs>
					<clipPath id="SVGID_4_">
						<use xlink:href="#SVGID_3_"  overflow="visible"/>
					</clipPath>
					<g clip-path="url(#SVGID_4_)">
						
							<line fill="none" stroke="#000000" stroke-width="0.35" stroke-miterlimit="10" x1="1045.218" y1="617.398" x2="-6.343" y2="91.104"/>
						<line fill="none" x1="1040.494" y1="656.303" x2="-6.343" y2="132.391"/>
						
							<line fill="none" stroke="#000000" stroke-width="0.35" stroke-miterlimit="10" x1="1040.366" y1="697.968" x2="-6.471" y2="174.06"/>
						<line fill="none" x1="1040.494" y1="738.875" x2="-6.343" y2="214.969"/>
						
							<line fill="none" stroke="#000000" stroke-width="0.35" stroke-miterlimit="10" x1="1040.494" y1="780.939" x2="-6.343" y2="257.037"/>
						<line fill="none" x1="1040.494" y1="822.056" x2="-6.343" y2="298.149"/>
						
							<line fill="none" stroke="#000000" stroke-width="0.35" stroke-miterlimit="10" x1="1040.494" y1="863.636" x2="-6.343" y2="339.725"/>
						<line fill="none" x1="1040.494" y1="905.217" x2="-6.343" y2="381.306"/>
						
							<line fill="none" stroke="#000000" stroke-width="0.35" stroke-miterlimit="10" x1="1040.401" y1="946.551" x2="-6.436" y2="422.64"/>
						<line fill="none" x1="1040.494" y1="987.706" x2="-6.343" y2="463.794"/>
						
							<line fill="none" stroke="#000000" stroke-width="0.35" stroke-miterlimit="10" x1="1040.494" y1="1029.145" x2="-6.343" y2="505.232"/>
						<line fill="none" x1="1040.494" y1="1070.526" x2="-6.343" y2="546.614"/>
						
							<line fill="none" stroke="#000000" stroke-width="0.35" stroke-miterlimit="10" x1="1040.494" y1="1111.975" x2="-6.343" y2="588.061"/>
						<line fill="none" x1="1040.494" y1="573.213" x2="-6.343" y2="49.308"/>
						
							<line fill="none" stroke="#000000" stroke-width="0.35" stroke-miterlimit="10" x1="1047.853" y1="536.042" x2="-6.775" y2="8.285"/>
						<line fill="none" x1="1040.494" y1="490.424" x2="-6.343" y2="-33.483"/>
						
							<line fill="none" stroke="#000000" stroke-width="0.35" stroke-miterlimit="10" x1="1046.838" y1="452.452" x2="-6.666" y2="-74.811"/>
						<line fill="none" x1="1040.494" y1="407.433" x2="-6.343" y2="-116.475"/>
						
							<line fill="none" stroke="#000000" stroke-width="0.35" stroke-miterlimit="10" x1="1044.455" y1="368.038" x2="-6.343" y2="-157.809"/>
						<line fill="none" x1="1040.494" y1="324.764" x2="-6.343" y2="-199.142"/>
						
							<line fill="none" stroke="#000000" stroke-width="0.35" stroke-miterlimit="10" x1="1040.494" y1="283.434" x2="-6.343" y2="-240.477"/>
						<line fill="none" x1="1040.494" y1="242.099" x2="-6.343" y2="-281.811"/>
						
							<line fill="none" stroke="#000000" stroke-width="0.35" stroke-miterlimit="10" x1="1043.99" y1="202.482" x2="-6.343" y2="-323.145"/>
						<line fill="none" x1="1040.494" y1="159.43" x2="-6.343" y2="-364.478"/>
						
							<line fill="none" stroke="#000000" stroke-width="0.35" stroke-miterlimit="10" x1="1044.507" y1="120.116" x2="-6.343" y2="-405.812"/>
						<line fill="none" x1="1040.494" y1="76.764" x2="-6.343" y2="-447.145"/>
						
							<line fill="none" stroke="#000000" stroke-width="0.35" stroke-miterlimit="10" x1="1044.511" y1="37.337" x2="-6.343" y2="-488.48"/>
					</g>
				</g>
			</g>
		</g>
		
			<rect x="310.32" y="228.988" fill="#FFFFFF" stroke="#000000" stroke-width="0.35" stroke-miterlimit="10" width="414.011" height="165.645"/>
	</g>
	<g id="begrenzungsrahmen">
		<g>
			<path d="M1041.371-5.311v634.243H-6.719V-5.311H1041.371 M1041.731-5.669H-7.078v634.961h1048.811L1041.731-5.669L1041.731-5.669
				z"/>
		</g>
		<g>
			<path d="M1041.371-5.311v634.243H-6.719V-5.311H1041.371 M1041.731-5.669H-7.078v634.961h1048.811L1041.731-5.669L1041.731-5.669
				z"/>
		</g>
	</g>
</g>
</svg>
