<?xml version="1.0" encoding="utf-8"?>
<!-- Generator: Adobe Illustrator 21.0.0, SVG Export Plug-In . SVG Version: 6.00 Build 0)  -->
<svg version="1.1" id="Ebene_1" xmlns="http://www.w3.org/2000/svg" xmlns:xlink="http://www.w3.org/1999/xlink" x="0px" y="0px"
	 viewBox="0 0 1034.646 623.622" enable-background="new 0 0 1034.646 623.622" xml:space="preserve">
<g id="Ebene_1_Kopie_Kopie" display="none">
	
		<line display="inline" fill="none" stroke="#C6C6C6" stroke-width="0.35" stroke-miterlimit="10" x1="517.131" y1="373.684" x2="517.133" y2="243.573"/>
	
		<line display="inline" fill="none" stroke="#C6C6C6" stroke-width="0.35" stroke-miterlimit="10" x1="522.8" y1="373.684" x2="522.802" y2="243.573"/>
	
		<line display="inline" fill="none" stroke="#C6C6C6" stroke-width="0.35" stroke-miterlimit="10" x1="528.469" y1="373.684" x2="528.471" y2="243.573"/>
	
		<line display="inline" fill="none" stroke="#C6C6C6" stroke-width="1.2" stroke-miterlimit="10" x1="534.138" y1="373.684" x2="534.14" y2="243.573"/>
	
		<line display="inline" fill="none" stroke="#C6C6C6" stroke-width="0.35" stroke-miterlimit="10" x1="539.807" y1="373.684" x2="539.809" y2="243.573"/>
	
		<line display="inline" fill="none" stroke="#C6C6C6" stroke-width="0.35" stroke-miterlimit="10" x1="545.476" y1="373.684" x2="545.478" y2="243.573"/>
	
		<line display="inline" fill="none" stroke="#C6C6C6" stroke-width="0.35" stroke-miterlimit="10" x1="551.146" y1="373.684" x2="551.147" y2="243.573"/>
	
		<line display="inline" fill="none" stroke="#C6C6C6" stroke-width="0.35" stroke-miterlimit="10" x1="556.814" y1="373.684" x2="556.816" y2="243.573"/>
	
		<line display="inline" fill="none" stroke="#C6C6C6" stroke-width="1.2" stroke-miterlimit="10" x1="562.483" y1="373.684" x2="562.485" y2="243.573"/>
	
		<line display="inline" fill="none" stroke="#C6C6C6" stroke-width="0.35" stroke-miterlimit="10" x1="568.153" y1="373.684" x2="568.155" y2="243.573"/>
	
		<line display="inline" fill="none" stroke="#C6C6C6" stroke-width="0.35" stroke-miterlimit="10" x1="573.822" y1="373.684" x2="573.824" y2="243.573"/>
	
		<line display="inline" fill="none" stroke="#C6C6C6" stroke-width="0.35" stroke-miterlimit="10" x1="579.491" y1="373.684" x2="579.493" y2="243.573"/>
	
		<line display="inline" fill="none" stroke="#C6C6C6" stroke-width="0.35" stroke-miterlimit="10" x1="585.161" y1="373.684" x2="585.163" y2="243.573"/>
	
		<line display="inline" fill="none" stroke="#C6C6C6" stroke-width="1.2" stroke-miterlimit="10" x1="590.83" y1="373.684" x2="590.832" y2="243.573"/>
	
		<line display="inline" fill="none" stroke="#C6C6C6" stroke-width="0.35" stroke-miterlimit="10" x1="596.499" y1="373.684" x2="596.501" y2="243.573"/>
	
		<line display="inline" fill="none" stroke="#C6C6C6" stroke-width="0.35" stroke-miterlimit="10" x1="602.171" y1="373.684" x2="602.173" y2="243.573"/>
	
		<line display="inline" fill="none" stroke="#C6C6C6" stroke-width="0.35" stroke-miterlimit="10" x1="607.84" y1="373.684" x2="607.842" y2="243.573"/>
	
		<line display="inline" fill="none" stroke="#C6C6C6" stroke-width="0.35" stroke-miterlimit="10" x1="610.675" y1="373.684" x2="610.677" y2="243.573"/>
	
		<line display="inline" fill="none" stroke="#C6C6C6" stroke-width="0.35" stroke-miterlimit="10" x1="511.462" y1="373.684" x2="511.462" y2="243.573"/>
	
		<line display="inline" fill="none" stroke="#C6C6C6" stroke-width="1.2" stroke-miterlimit="10" x1="505.791" y1="373.684" x2="505.791" y2="243.573"/>
	
		<line display="inline" fill="none" stroke="#C6C6C6" stroke-width="0.35" stroke-miterlimit="10" x1="500.122" y1="373.684" x2="500.122" y2="243.573"/>
	
		<line display="inline" fill="none" stroke="#C6C6C6" stroke-width="0.35" stroke-miterlimit="10" x1="494.452" y1="373.684" x2="494.452" y2="243.573"/>
	
		<line display="inline" fill="none" stroke="#C6C6C6" stroke-width="0.35" stroke-miterlimit="10" x1="488.782" y1="373.684" x2="488.782" y2="243.573"/>
	
		<line display="inline" fill="none" stroke="#C6C6C6" stroke-width="0.35" stroke-miterlimit="10" x1="483.114" y1="373.684" x2="483.114" y2="243.573"/>
	
		<line display="inline" fill="none" stroke="#C6C6C6" stroke-width="1.2" stroke-miterlimit="10" x1="477.444" y1="373.684" x2="477.444" y2="243.573"/>
	
		<line display="inline" fill="none" stroke="#C6C6C6" stroke-width="0.35" stroke-miterlimit="10" x1="471.774" y1="373.684" x2="471.774" y2="243.573"/>
	
		<line display="inline" fill="none" stroke="#C6C6C6" stroke-width="0.35" stroke-miterlimit="10" x1="466.106" y1="373.684" x2="466.106" y2="243.573"/>
	
		<line display="inline" fill="none" stroke="#C6C6C6" stroke-width="0.35" stroke-miterlimit="10" x1="460.437" y1="373.684" x2="460.437" y2="243.573"/>
	
		<line display="inline" fill="none" stroke="#C6C6C6" stroke-width="0.35" stroke-miterlimit="10" x1="454.767" y1="373.684" x2="454.767" y2="243.573"/>
	
		<line display="inline" fill="none" stroke="#C6C6C6" stroke-width="1.2" stroke-miterlimit="10" x1="449.098" y1="373.684" x2="449.098" y2="243.573"/>
	
		<line display="inline" fill="none" stroke="#C6C6C6" stroke-width="0.35" stroke-miterlimit="10" x1="443.429" y1="373.684" x2="443.429" y2="243.573"/>
	
		<line display="inline" fill="none" stroke="#C6C6C6" stroke-width="0.35" stroke-miterlimit="10" x1="437.76" y1="373.684" x2="437.76" y2="243.573"/>
	
		<line display="inline" fill="none" stroke="#C6C6C6" stroke-width="0.35" stroke-miterlimit="10" x1="432.092" y1="373.684" x2="432.092" y2="243.573"/>
	
		<line display="inline" fill="none" stroke="#C6C6C6" stroke-width="0.35" stroke-miterlimit="10" x1="426.423" y1="373.684" x2="426.423" y2="243.573"/>
	
		<line display="inline" fill="none" stroke="#C6C6C6" stroke-width="1.2" stroke-miterlimit="10" x1="420.753" y1="373.684" x2="420.753" y2="243.573"/>
	
		<line display="inline" fill="none" stroke="#C6C6C6" stroke-width="0.35" stroke-miterlimit="10" x1="415.082" y1="373.684" x2="415.082" y2="243.573"/>
	
		<line display="inline" fill="none" stroke="#C6C6C6" stroke-width="0.35" stroke-miterlimit="10" x1="409.413" y1="373.684" x2="409.413" y2="243.573"/>
	
		<line display="inline" fill="none" stroke="#C6C6C6" stroke-width="0.35" stroke-miterlimit="10" x1="403.743" y1="373.684" x2="403.743" y2="243.573"/>
	<g display="inline">
		
			<line fill="none" stroke="#C6C6C6" stroke-width="0.35" stroke-miterlimit="10" x1="514.296" y1="373.68" x2="514.298" y2="243.57"/>
		
			<line fill="none" stroke="#C6C6C6" stroke-width="0.35" stroke-miterlimit="10" x1="519.966" y1="373.68" x2="519.967" y2="243.57"/>
		
			<line fill="none" stroke="#C6C6C6" stroke-width="0.35" stroke-miterlimit="10" x1="525.635" y1="373.68" x2="525.636" y2="243.57"/>
		
			<line fill="none" stroke="#C6C6C6" stroke-width="0.35" stroke-miterlimit="10" x1="531.304" y1="373.68" x2="531.306" y2="243.57"/>
		
			<line fill="none" stroke="#C6C6C6" stroke-width="0.35" stroke-miterlimit="10" x1="536.972" y1="373.68" x2="536.974" y2="243.57"/>
		
			<line fill="none" stroke="#C6C6C6" stroke-width="0.35" stroke-miterlimit="10" x1="542.642" y1="373.68" x2="542.644" y2="243.57"/>
		
			<line fill="none" stroke="#C6C6C6" stroke-width="0.35" stroke-miterlimit="10" x1="548.312" y1="373.68" x2="548.313" y2="243.57"/>
		
			<line fill="none" stroke="#C6C6C6" stroke-width="0.35" stroke-miterlimit="10" x1="553.979" y1="373.68" x2="553.981" y2="243.57"/>
		
			<line fill="none" stroke="#C6C6C6" stroke-width="0.35" stroke-miterlimit="10" x1="559.649" y1="373.68" x2="559.651" y2="243.57"/>
		
			<line fill="none" stroke="#C6C6C6" stroke-width="0.35" stroke-miterlimit="10" x1="565.319" y1="373.68" x2="565.321" y2="243.57"/>
		
			<line fill="none" stroke="#C6C6C6" stroke-width="0.35" stroke-miterlimit="10" x1="570.987" y1="373.68" x2="570.989" y2="243.57"/>
		
			<line fill="none" stroke="#C6C6C6" stroke-width="0.35" stroke-miterlimit="10" x1="576.657" y1="373.68" x2="576.659" y2="243.57"/>
		
			<line fill="none" stroke="#C6C6C6" stroke-width="0.35" stroke-miterlimit="10" x1="582.327" y1="373.68" x2="582.329" y2="243.57"/>
		
			<line fill="none" stroke="#C6C6C6" stroke-width="0.35" stroke-miterlimit="10" x1="587.995" y1="373.68" x2="587.997" y2="243.57"/>
		
			<line fill="none" stroke="#C6C6C6" stroke-width="0.35" stroke-miterlimit="10" x1="593.665" y1="373.68" x2="593.667" y2="243.57"/>
		
			<line fill="none" stroke="#C6C6C6" stroke-width="0.35" stroke-miterlimit="10" x1="599.337" y1="373.68" x2="599.339" y2="243.57"/>
		
			<line fill="none" stroke="#C6C6C6" stroke-width="0.35" stroke-miterlimit="10" x1="605.005" y1="373.68" x2="605.007" y2="243.57"/>
		
			<line fill="none" stroke="#C6C6C6" stroke-width="0.35" stroke-miterlimit="10" x1="508.628" y1="373.68" x2="508.628" y2="243.57"/>
		
			<line fill="none" stroke="#C6C6C6" stroke-width="0.35" stroke-miterlimit="10" x1="502.956" y1="373.68" x2="502.956" y2="243.57"/>
		
			<line fill="none" stroke="#C6C6C6" stroke-width="0.35" stroke-miterlimit="10" x1="497.286" y1="373.68" x2="497.288" y2="243.57"/>
		
			<line fill="none" stroke="#C6C6C6" stroke-width="0.35" stroke-miterlimit="10" x1="491.617" y1="373.68" x2="491.617" y2="243.57"/>
		
			<line fill="none" stroke="#C6C6C6" stroke-width="0.35" stroke-miterlimit="10" x1="485.948" y1="373.68" x2="485.948" y2="243.57"/>
		
			<line fill="none" stroke="#C6C6C6" stroke-width="0.35" stroke-miterlimit="10" x1="480.278" y1="373.68" x2="480.28" y2="243.57"/>
		
			<line fill="none" stroke="#C6C6C6" stroke-width="0.35" stroke-miterlimit="10" x1="474.609" y1="373.68" x2="474.609" y2="243.57"/>
		
			<line fill="none" stroke="#C6C6C6" stroke-width="0.35" stroke-miterlimit="10" x1="468.94" y1="373.68" x2="468.94" y2="243.57"/>
		
			<line fill="none" stroke="#C6C6C6" stroke-width="0.35" stroke-miterlimit="10" x1="463.271" y1="373.68" x2="463.271" y2="243.57"/>
		
			<line fill="none" stroke="#C6C6C6" stroke-width="0.35" stroke-miterlimit="10" x1="457.602" y1="373.68" x2="457.602" y2="243.57"/>
		
			<line fill="none" stroke="#C6C6C6" stroke-width="0.35" stroke-miterlimit="10" x1="451.933" y1="373.68" x2="451.933" y2="243.57"/>
		
			<line fill="none" stroke="#C6C6C6" stroke-width="0.35" stroke-miterlimit="10" x1="446.263" y1="373.68" x2="446.263" y2="243.57"/>
		
			<line fill="none" stroke="#C6C6C6" stroke-width="0.35" stroke-miterlimit="10" x1="440.594" y1="373.68" x2="440.594" y2="243.57"/>
		
			<line fill="none" stroke="#C6C6C6" stroke-width="0.35" stroke-miterlimit="10" x1="434.926" y1="373.68" x2="434.926" y2="243.57"/>
		
			<line fill="none" stroke="#C6C6C6" stroke-width="0.35" stroke-miterlimit="10" x1="429.257" y1="373.68" x2="429.257" y2="243.57"/>
		
			<line fill="none" stroke="#C6C6C6" stroke-width="0.35" stroke-miterlimit="10" x1="423.588" y1="373.68" x2="423.588" y2="243.57"/>
		
			<line fill="none" stroke="#C6C6C6" stroke-width="0.35" stroke-miterlimit="10" x1="417.917" y1="373.68" x2="417.917" y2="243.57"/>
		
			<line fill="none" stroke="#C6C6C6" stroke-width="0.35" stroke-miterlimit="10" x1="412.247" y1="373.68" x2="412.247" y2="243.57"/>
		
			<line fill="none" stroke="#C6C6C6" stroke-width="0.35" stroke-miterlimit="10" x1="406.578" y1="373.68" x2="406.578" y2="243.57"/>
		
			<line fill="none" stroke="#C6C6C6" stroke-width="0.35" stroke-miterlimit="10" x1="400.909" y1="373.68" x2="400.909" y2="243.57"/>
	</g>
	
		<line display="inline" fill="none" stroke="#C6C6C6" stroke-width="0.35" stroke-miterlimit="10" x1="613.507" y1="249.101" x2="398.072" y2="249.101"/>
	
		<line display="inline" fill="none" stroke="#C6C6C6" stroke-width="0.35" stroke-miterlimit="10" x1="613.507" y1="254.77" x2="398.072" y2="254.77"/>
	
		<line display="inline" fill="none" stroke="#C6C6C6" stroke-width="0.35" stroke-miterlimit="10" x1="613.507" y1="260.439" x2="398.072" y2="260.439"/>
	
		<line display="inline" fill="none" stroke="#C6C6C6" stroke-width="1.2" stroke-miterlimit="10" x1="613.507" y1="266.108" x2="398.072" y2="266.108"/>
	
		<line display="inline" fill="none" stroke="#C6C6C6" stroke-width="0.35" stroke-miterlimit="10" x1="613.507" y1="271.777" x2="398.072" y2="271.777"/>
	
		<line display="inline" fill="none" stroke="#C6C6C6" stroke-width="0.35" stroke-miterlimit="10" x1="613.507" y1="277.447" x2="398.072" y2="277.447"/>
	
		<line display="inline" fill="none" stroke="#C6C6C6" stroke-width="0.35" stroke-miterlimit="10" x1="613.507" y1="283.116" x2="398.072" y2="283.116"/>
	
		<line display="inline" fill="none" stroke="#C6C6C6" stroke-width="0.35" stroke-miterlimit="10" x1="613.507" y1="288.785" x2="398.072" y2="288.785"/>
	
		<line display="inline" fill="none" stroke="#C6C6C6" stroke-width="1.2" stroke-miterlimit="10" x1="613.507" y1="294.455" x2="398.072" y2="294.455"/>
	
		<line display="inline" fill="none" stroke="#C6C6C6" stroke-width="0.35" stroke-miterlimit="10" x1="613.507" y1="300.124" x2="398.072" y2="300.124"/>
	
		<line display="inline" fill="none" stroke="#C6C6C6" stroke-width="0.35" stroke-miterlimit="10" x1="613.507" y1="305.793" x2="398.072" y2="305.793"/>
	
		<line display="inline" fill="none" stroke="#C6C6C6" stroke-width="0.35" stroke-miterlimit="10" x1="613.507" y1="311.463" x2="398.072" y2="311.463"/>
	
		<line display="inline" fill="none" stroke="#C6C6C6" stroke-width="0.35" stroke-miterlimit="10" x1="613.507" y1="317.131" x2="398.072" y2="317.131"/>
	
		<line display="inline" fill="none" stroke="#C6C6C6" stroke-width="1.2" stroke-miterlimit="10" x1="613.507" y1="322.801" x2="398.072" y2="322.801"/>
	
		<line display="inline" fill="none" stroke="#C6C6C6" stroke-width="0.35" stroke-miterlimit="10" x1="613.507" y1="328.471" x2="398.072" y2="328.471"/>
	
		<line display="inline" fill="none" stroke="#C6C6C6" stroke-width="0.35" stroke-miterlimit="10" x1="613.507" y1="334.141" x2="398.072" y2="334.141"/>
	
		<line display="inline" fill="none" stroke="#C6C6C6" stroke-width="0.35" stroke-miterlimit="10" x1="613.507" y1="339.811" x2="398.072" y2="339.811"/>
	
		<line display="inline" fill="none" stroke="#C6C6C6" stroke-width="0.35" stroke-miterlimit="10" x1="613.507" y1="345.479" x2="398.072" y2="345.479"/>
	
		<line display="inline" fill="none" stroke="#C6C6C6" stroke-width="1.2" stroke-miterlimit="10" x1="613.507" y1="351.146" x2="398.072" y2="351.146"/>
	
		<line display="inline" fill="none" stroke="#C6C6C6" stroke-width="0.35" stroke-miterlimit="10" x1="613.507" y1="356.816" x2="398.072" y2="356.816"/>
	
		<line display="inline" fill="none" stroke="#C6C6C6" stroke-width="0.35" stroke-miterlimit="10" x1="613.507" y1="362.486" x2="398.072" y2="362.486"/>
	
		<line display="inline" fill="none" stroke="#C6C6C6" stroke-width="0.35" stroke-miterlimit="10" x1="613.507" y1="368.154" x2="398.072" y2="368.154"/>
	
		<line display="inline" fill="none" stroke="#C6C6C6" stroke-width="0.35" stroke-miterlimit="10" x1="613.507" y1="370.986" x2="398.072" y2="370.986"/>
	
		<line display="inline" fill="none" stroke="#C6C6C6" stroke-width="0.35" stroke-miterlimit="10" x1="613.508" y1="246.263" x2="398.074" y2="246.263"/>
	
		<line display="inline" fill="none" stroke="#C6C6C6" stroke-width="0.35" stroke-miterlimit="10" x1="613.508" y1="251.932" x2="398.074" y2="251.932"/>
	
		<line display="inline" fill="none" stroke="#C6C6C6" stroke-width="0.35" stroke-miterlimit="10" x1="613.508" y1="257.602" x2="398.074" y2="257.602"/>
	
		<line display="inline" fill="none" stroke="#C6C6C6" stroke-width="0.272" stroke-miterlimit="10" x1="613.508" y1="263.271" x2="398.074" y2="263.271"/>
	
		<line display="inline" fill="none" stroke="#C6C6C6" stroke-width="0.35" stroke-miterlimit="10" x1="613.508" y1="268.94" x2="398.074" y2="268.94"/>
	
		<line display="inline" fill="none" stroke="#C6C6C6" stroke-width="0.35" stroke-miterlimit="10" x1="613.508" y1="274.61" x2="398.074" y2="274.61"/>
	
		<line display="inline" fill="none" stroke="#C6C6C6" stroke-width="0.35" stroke-miterlimit="10" x1="613.508" y1="280.279" x2="398.074" y2="280.279"/>
	
		<line display="inline" fill="none" stroke="#C6C6C6" stroke-width="0.35" stroke-miterlimit="10" x1="613.508" y1="285.948" x2="398.074" y2="285.948"/>
	
		<line display="inline" fill="none" stroke="#C6C6C6" stroke-width="0.272" stroke-miterlimit="10" x1="613.508" y1="291.618" x2="398.074" y2="291.618"/>
	
		<line display="inline" fill="none" stroke="#C6C6C6" stroke-width="0.35" stroke-miterlimit="10" x1="613.508" y1="297.287" x2="398.074" y2="297.287"/>
	
		<line display="inline" fill="none" stroke="#C6C6C6" stroke-width="0.35" stroke-miterlimit="10" x1="613.508" y1="302.956" x2="398.074" y2="302.956"/>
	
		<line display="inline" fill="none" stroke="#C6C6C6" stroke-width="0.35" stroke-miterlimit="10" x1="613.508" y1="308.625" x2="398.074" y2="308.625"/>
	
		<line display="inline" fill="none" stroke="#C6C6C6" stroke-width="0.35" stroke-miterlimit="10" x1="613.508" y1="314.295" x2="398.074" y2="314.295"/>
	
		<line display="inline" fill="none" stroke="#C6C6C6" stroke-width="0.272" stroke-miterlimit="10" x1="613.508" y1="319.965" x2="398.074" y2="319.965"/>
	
		<line display="inline" fill="none" stroke="#C6C6C6" stroke-width="0.35" stroke-miterlimit="10" x1="613.508" y1="325.633" x2="398.074" y2="325.633"/>
	
		<line display="inline" fill="none" stroke="#C6C6C6" stroke-width="0.35" stroke-miterlimit="10" x1="613.508" y1="331.303" x2="398.074" y2="331.303"/>
	
		<line display="inline" fill="none" stroke="#C6C6C6" stroke-width="0.35" stroke-miterlimit="10" x1="613.508" y1="336.973" x2="398.074" y2="336.973"/>
	
		<line display="inline" fill="none" stroke="#C6C6C6" stroke-width="0.35" stroke-miterlimit="10" x1="613.508" y1="342.643" x2="398.074" y2="342.643"/>
	
		<line display="inline" fill="none" stroke="#C6C6C6" stroke-width="0.272" stroke-miterlimit="10" x1="613.508" y1="348.311" x2="398.074" y2="348.311"/>
	
		<line display="inline" fill="none" stroke="#C6C6C6" stroke-width="0.35" stroke-miterlimit="10" x1="613.508" y1="353.98" x2="398.074" y2="353.98"/>
	
		<line display="inline" fill="none" stroke="#C6C6C6" stroke-width="0.35" stroke-miterlimit="10" x1="613.508" y1="359.648" x2="398.074" y2="359.648"/>
	
		<line display="inline" fill="none" stroke="#C6C6C6" stroke-width="0.35" stroke-miterlimit="10" x1="613.508" y1="365.318" x2="398.074" y2="365.318"/>
	<g display="inline">
		<path fill="#C6C6C6" d="M613.158,243.779v129.696H398.426V243.779H613.158 M613.509,243.429H398.074v130.395h215.435V243.429
			L613.509,243.429z"/>
	</g>
</g>
<g id="Hilfslinien" display="none">
</g>
<g>
	<g id="Horizontal_x5F_2">
		<line fill="none" x1="1041.718" y1="21.95" x2="-7.087" y2="21.95"/>
		<line fill="none" x1="1041.718" y1="49.554" x2="-7.087" y2="49.554"/>
		<line fill="none" x1="1041.718" y1="77.166" x2="-7.087" y2="77.166"/>
		<line fill="none" x1="1041.718" y1="104.769" x2="-7.087" y2="104.769"/>
		<line fill="none" x1="1041.718" y1="132.376" x2="-7.087" y2="132.376"/>
		<line fill="none" x1="1041.718" y1="159.984" x2="-7.087" y2="159.984"/>
		<line fill="none" x1="1041.718" y1="187.589" x2="-7.087" y2="187.589"/>
		<line fill="none" x1="1041.718" y1="215.196" x2="-7.087" y2="215.196"/>
		<line fill="none" x1="1041.718" y1="242.804" x2="-7.087" y2="242.804"/>
		<line fill="none" x1="1041.718" y1="270.411" x2="-7.087" y2="270.411"/>
		<line fill="none" x1="1041.718" y1="298.017" x2="-7.087" y2="298.017"/>
		<line fill="none" x1="1041.718" y1="325.626" x2="-7.087" y2="325.626"/>
		<line fill="none" x1="1041.718" y1="353.231" x2="-7.087" y2="353.231"/>
		<line fill="none" x1="1041.718" y1="380.841" x2="-7.087" y2="380.841"/>
		<line fill="none" x1="1041.718" y1="408.444" x2="-7.087" y2="408.444"/>
		<line fill="none" x1="1041.718" y1="436.053" x2="-7.087" y2="436.053"/>
		<line fill="none" x1="1041.718" y1="463.663" x2="-7.087" y2="463.663"/>
		<line fill="none" x1="1041.718" y1="491.266" x2="-7.087" y2="491.266"/>
		<line fill="none" x1="1041.718" y1="518.872" x2="-7.087" y2="518.872"/>
		<line fill="none" x1="1041.718" y1="546.483" x2="-7.087" y2="546.483"/>
		<line fill="none" x1="1041.718" y1="574.088" x2="-7.087" y2="574.088"/>
		<line fill="none" x1="1041.718" y1="601.692" x2="-7.087" y2="601.692"/>
		<line fill="none" x1="1041.718" y1="615.483" x2="-7.087" y2="615.483"/>
		<line fill="none" x1="1041.727" y1="8.133" x2="-7.077" y2="8.133"/>
		<line fill="none" x1="1041.727" y1="35.739" x2="-7.077" y2="35.739"/>
		
			<line fill="none" stroke="#000000" stroke-width="0.35" stroke-miterlimit="10" x1="1040.909" y1="63.348" x2="-6.398" y2="63.348"/>
		<line fill="none" x1="1041.727" y1="90.954" x2="-7.077" y2="90.954"/>
		<line fill="none" x1="1041.727" y1="118.558" x2="-7.077" y2="118.558"/>
		
			<line fill="none" stroke="#000000" stroke-width="1.2" stroke-miterlimit="10" x1="1040.909" y1="146.168" x2="-6.398" y2="146.168"/>
		<line fill="none" x1="1041.727" y1="173.775" x2="-7.077" y2="173.775"/>
		<line fill="none" x1="1041.727" y1="201.379" x2="-7.077" y2="201.379"/>
		
			<line fill="none" stroke="#000000" stroke-width="0.35" stroke-miterlimit="10" x1="1040.909" y1="228.989" x2="-6.398" y2="228.989"/>
		<line fill="none" x1="1041.727" y1="256.593" x2="-7.077" y2="256.593"/>
		<line fill="none" x1="1041.727" y1="284.201" x2="-7.077" y2="284.201"/>
		
			<line fill="none" stroke="#000000" stroke-width="1.2" stroke-miterlimit="10" x1="310.328" y1="311.809" x2="-6.398" y2="311.809"/>
		<line fill="none" x1="1041.727" y1="339.419" x2="-7.077" y2="339.419"/>
		<line fill="none" x1="1041.727" y1="367.026" x2="-7.077" y2="367.026"/>
		
			<line fill="none" stroke="#000000" stroke-width="0.35" stroke-miterlimit="10" x1="1040.909" y1="394.632" x2="-6.398" y2="394.632"/>
		<line fill="none" x1="1041.727" y1="422.237" x2="-7.077" y2="422.237"/>
		<line fill="none" x1="1041.727" y1="449.844" x2="-7.077" y2="449.844"/>
		
			<line fill="none" stroke="#000000" stroke-width="1.2" stroke-miterlimit="10" x1="1040.909" y1="477.454" x2="-6.398" y2="477.454"/>
		<line fill="none" x1="1041.727" y1="505.057" x2="-7.077" y2="505.057"/>
		<line fill="none" x1="1041.727" y1="532.667" x2="-7.077" y2="532.667"/>
		
			<line fill="none" stroke="#000000" stroke-width="0.35" stroke-miterlimit="10" x1="1040.909" y1="560.274" x2="-6.398" y2="560.274"/>
		<line fill="none" x1="1041.727" y1="587.877" x2="-7.077" y2="587.877"/>
		<polyline fill="none" stroke="#000000" stroke-width="1.2" stroke-miterlimit="10" points="724.327,-4.965 724.327,311.809 
			1040.909,311.809 		"/>
	</g>
	<g id="Vertikal_x5F_2">
		<line fill="none" x1="586.327" y1="628.608" x2="586.335" y2="-4.965"/>
		<line fill="none" x1="613.929" y1="628.608" x2="613.938" y2="-4.965"/>
		
			<line fill="none" stroke="#000000" stroke-width="0.35" stroke-miterlimit="10" x1="641.526" y1="628.608" x2="641.536" y2="394.743"/>
		<line fill="none" x1="669.132" y1="628.608" x2="669.14" y2="-4.965"/>
		<line fill="none" x1="696.727" y1="628.608" x2="696.739" y2="-4.965"/>
		
			<line fill="none" stroke="#000000" stroke-width="0.35" stroke-miterlimit="10" x1="724.327" y1="628.608" x2="724.337" y2="-4.965"/>
		<line fill="none" x1="751.931" y1="628.608" x2="751.94" y2="-4.965"/>
		<line fill="none" x1="779.53" y1="628.608" x2="779.54" y2="-4.965"/>
		
			<line fill="none" stroke="#000000" stroke-width="0.35" stroke-miterlimit="10" x1="807.128" y1="628.608" x2="807.136" y2="-4.965"/>
		<line fill="none" x1="834.733" y1="628.608" x2="834.741" y2="-4.965"/>
		<line fill="none" x1="862.331" y1="628.608" x2="862.339" y2="-4.965"/>
		
			<line fill="none" stroke="#000000" stroke-width="0.35" stroke-miterlimit="10" x1="889.927" y1="628.608" x2="889.938" y2="-4.965"/>
		<line fill="none" x1="917.532" y1="628.608" x2="917.538" y2="-4.965"/>
		<line fill="none" x1="945.128" y1="628.608" x2="945.14" y2="-4.965"/>
		
			<line fill="none" stroke="#000000" stroke-width="0.35" stroke-miterlimit="10" x1="972.729" y1="628.608" x2="972.739" y2="-4.965"/>
		<line fill="none" x1="1000.331" y1="628.608" x2="1000.341" y2="-4.965"/>
		<line fill="none" x1="1027.931" y1="628.608" x2="1027.94" y2="-4.965"/>
		
			<line fill="none" stroke="#000000" stroke-width="0.35" stroke-miterlimit="10" x1="558.727" y1="628.608" x2="558.727" y2="394.743"/>
		<line fill="none" x1="531.128" y1="628.608" x2="531.128" y2="-4.965"/>
		<line fill="none" x1="503.531" y1="628.608" x2="503.531" y2="-4.965"/>
		
			<line fill="none" stroke="#000000" stroke-width="0.35" stroke-miterlimit="10" x1="475.927" y1="628.608" x2="475.927" y2="394.743"/>
		<line fill="none" x1="448.324" y1="628.608" x2="448.324" y2="-4.965"/>
		<line fill="none" x1="420.73" y1="628.608" x2="420.73" y2="-4.965"/>
		
			<line fill="none" stroke="#000000" stroke-width="0.35" stroke-miterlimit="10" x1="393.124" y1="628.608" x2="393.124" y2="394.743"/>
		<line fill="none" x1="365.523" y1="628.608" x2="365.523" y2="-4.965"/>
		<line fill="none" x1="337.931" y1="628.608" x2="337.931" y2="-4.965"/>
		
			<line fill="none" stroke="#000000" stroke-width="0.35" stroke-miterlimit="10" x1="310.328" y1="628.608" x2="310.328" y2="-4.965"/>
		<line fill="none" x1="282.721" y1="628.608" x2="282.721" y2="-4.965"/>
		<line fill="none" x1="255.124" y1="628.608" x2="255.124" y2="-4.965"/>
		
			<line fill="none" stroke="#000000" stroke-width="0.35" stroke-miterlimit="10" x1="227.526" y1="628.608" x2="227.526" y2="-4.965"/>
		<line fill="none" x1="199.922" y1="628.608" x2="199.922" y2="-4.965"/>
		<line fill="none" x1="172.325" y1="628.608" x2="172.325" y2="-4.965"/>
		
			<line fill="none" stroke="#000000" stroke-width="1.2" stroke-miterlimit="10" x1="144.725" y1="311.871" x2="144.725" y2="-4.98"/>
		
			<line fill="none" stroke="#000000" stroke-width="1.2" stroke-miterlimit="10" x1="227.526" y1="311.871" x2="227.526" y2="-4.909"/>
		
			<line fill="none" stroke="#000000" stroke-width="0.35" stroke-miterlimit="10" x1="144.725" y1="628.618" x2="144.725" y2="311.779"/>
		<line fill="none" x1="117.122" y1="628.608" x2="117.122" y2="-4.965"/>
		<line fill="none" x1="89.525" y1="628.608" x2="89.525" y2="-4.965"/>
		<line fill="none" stroke="#000000" stroke-width="1.2" stroke-miterlimit="10" x1="61.925" y1="311.779" x2="61.925" y2="-4.98"/>
		
			<line fill="none" stroke="#000000" stroke-width="0.35" stroke-miterlimit="10" x1="61.925" y1="628.594" x2="61.925" y2="311.805"/>
		<line fill="none" x1="34.322" y1="628.608" x2="34.322" y2="-4.965"/>
		<line fill="none" x1="572.524" y1="628.594" x2="572.532" y2="-4.98"/>
		
			<line fill="none" stroke="#000000" stroke-width="0.35" stroke-miterlimit="10" x1="600.126" y1="228.463" x2="600.136" y2="-4.98"/>
		
			<line fill="none" stroke="#000000" stroke-width="0.35" stroke-miterlimit="10" x1="627.729" y1="628.594" x2="627.737" y2="394.743"/>
		<line fill="none" x1="655.335" y1="628.594" x2="655.345" y2="-4.98"/>
		
			<line fill="none" stroke="#000000" stroke-width="0.35" stroke-miterlimit="10" x1="682.927" y1="228.989" x2="682.935" y2="-4.98"/>
		
			<line fill="none" stroke="#000000" stroke-width="0.35" stroke-miterlimit="10" x1="710.53" y1="628.594" x2="710.54" y2="394.743"/>
		<line fill="none" x1="738.136" y1="628.594" x2="738.142" y2="-4.98"/>
		
			<line fill="none" stroke="#000000" stroke-width="0.35" stroke-miterlimit="10" x1="765.726" y1="628.594" x2="765.737" y2="-4.98"/>
		
			<line fill="none" stroke="#000000" stroke-width="0.35" stroke-miterlimit="10" x1="793.331" y1="628.594" x2="793.344" y2="-4.98"/>
		<line fill="none" x1="820.936" y1="628.594" x2="820.944" y2="-4.98"/>
		
			<line fill="none" stroke="#000000" stroke-width="0.35" stroke-miterlimit="10" x1="848.528" y1="628.594" x2="848.538" y2="-4.98"/>
		
			<line fill="none" stroke="#000000" stroke-width="0.35" stroke-miterlimit="10" x1="876.13" y1="628.594" x2="876.142" y2="-4.98"/>
		<line fill="none" x1="903.733" y1="628.594" x2="903.743" y2="-4.98"/>
		
			<line fill="none" stroke="#000000" stroke-width="0.35" stroke-miterlimit="10" x1="931.327" y1="628.594" x2="931.335" y2="-4.98"/>
		
			<line fill="none" stroke="#000000" stroke-width="0.35" stroke-miterlimit="10" x1="958.933" y1="628.594" x2="958.94" y2="-4.98"/>
		<line fill="none" x1="986.534" y1="628.594" x2="986.546" y2="-4.98"/>
		
			<line fill="none" stroke="#000000" stroke-width="0.35" stroke-miterlimit="10" x1="1014.128" y1="628.594" x2="1014.138" y2="-4.98"/>
		
			<line fill="none" stroke="#000000" stroke-width="0.35" stroke-miterlimit="10" x1="544.931" y1="628.594" x2="544.931" y2="394.743"/>
		
			<line fill="none" stroke="#000000" stroke-width="0.35" stroke-miterlimit="10" x1="517.324" y1="228.989" x2="517.324" y2="-4.98"/>
		<line fill="none" x1="489.724" y1="628.594" x2="489.734" y2="-4.98"/>
		
			<line fill="none" stroke="#000000" stroke-width="0.35" stroke-miterlimit="10" x1="462.124" y1="228.989" x2="462.124" y2="-4.98"/>
		
			<line fill="none" stroke="#000000" stroke-width="0.35" stroke-miterlimit="10" x1="434.527" y1="228.989" x2="434.527" y2="-4.98"/>
		<line fill="none" x1="406.923" y1="628.594" x2="406.933" y2="-4.98"/>
		
			<line fill="none" stroke="#000000" stroke-width="0.35" stroke-miterlimit="10" x1="379.324" y1="628.608" x2="379.324" y2="394.743"/>
		
			<line fill="none" stroke="#000000" stroke-width="0.35" stroke-miterlimit="10" x1="351.725" y1="228.463" x2="351.725" y2="-4.98"/>
		<line fill="none" x1="324.124" y1="628.594" x2="324.124" y2="-4.98"/>
		
			<line fill="none" stroke="#000000" stroke-width="0.35" stroke-miterlimit="10" x1="296.525" y1="628.594" x2="296.525" y2="-4.98"/>
		
			<line fill="none" stroke="#000000" stroke-width="1.2" stroke-miterlimit="10" x1="268.926" y1="628.594" x2="268.926" y2="311.779"/>
		
			<line fill="none" stroke="#000000" stroke-width="0.35" stroke-miterlimit="10" x1="268.926" y1="311.835" x2="268.926" y2="-4.98"/>
		<line fill="none" x1="241.322" y1="628.594" x2="241.322" y2="-4.98"/>
		
			<line fill="none" stroke="#000000" stroke-width="0.35" stroke-miterlimit="10" x1="213.724" y1="628.594" x2="213.724" y2="-4.98"/>
		<line fill="none" x1="172.325" y1="628.608" x2="172.325" y2="-4.965"/>
		
			<line fill="none" stroke="#000000" stroke-width="1.2" stroke-miterlimit="10" x1="186.124" y1="628.594" x2="186.124" y2="312.792"/>
		
			<line fill="none" stroke="#000000" stroke-width="0.35" stroke-miterlimit="10" x1="186.124" y1="311.814" x2="186.124" y2="-4.909"/>
		<line fill="none" x1="158.523" y1="628.594" x2="158.523" y2="-4.98"/>
		
			<line fill="none" stroke="#000000" stroke-width="0.35" stroke-miterlimit="10" x1="130.923" y1="628.594" x2="130.923" y2="-4.98"/>
		
			<line fill="none" stroke="#000000" stroke-width="0.35" stroke-miterlimit="10" x1="103.324" y1="628.594" x2="103.324" y2="-4.98"/>
		<line fill="none" x1="75.721" y1="628.594" x2="75.721" y2="-4.98"/>
		
			<line fill="none" stroke="#000000" stroke-width="0.35" stroke-miterlimit="10" x1="48.123" y1="628.594" x2="48.123" y2="-4.98"/>
		
			<line fill="none" stroke="#000000" stroke-width="0.35" stroke-miterlimit="10" x1="20.524" y1="628.657" x2="20.524" y2="-4.915"/>
		<line fill="none" stroke="#000000" stroke-width="0.35" stroke-miterlimit="10" x1="6.723" y1="628.657" x2="6.723" y2="-4.915"/>
		
			<line fill="none" stroke="#000000" stroke-width="1.2" stroke-miterlimit="10" x1="61.925" y1="394.632" x2="61.925" y2="312.326"/>
		
			<line fill="none" stroke="#000000" stroke-width="1.2" stroke-miterlimit="10" x1="268.926" y1="146.168" x2="268.926" y2="63.348"/>
		
			<line fill="none" stroke="#000000" stroke-width="1.2" stroke-miterlimit="10" x1="20.524" y1="145.776" x2="20.524" y2="63.348"/>
		
			<line fill="none" stroke="#000000" stroke-width="1.2" stroke-miterlimit="10" x1="186.124" y1="63.348" x2="186.124" y2="-4.909"/>
		
			<line fill="none" stroke="#000000" stroke-width="1.2" stroke-miterlimit="10" x1="517.324" y1="146.168" x2="517.324" y2="63.348"/>
		
			<line fill="none" stroke="#000000" stroke-width="1.2" stroke-miterlimit="10" x1="434.527" y1="63.348" x2="434.527" y2="-4.909"/>
		
			<line fill="none" stroke="#000000" stroke-width="1.2" stroke-miterlimit="10" x1="765.737" y1="146.168" x2="765.737" y2="63.348"/>
		
			<line fill="none" stroke="#000000" stroke-width="1.2" stroke-miterlimit="10" x1="682.935" y1="63.348" x2="682.935" y2="-4.909"/>
		
			<line fill="none" stroke="#000000" stroke-width="1.2" stroke-miterlimit="10" x1="931.327" y1="63.348" x2="931.327" y2="-4.909"/>
		
			<line fill="none" stroke="#000000" stroke-width="1.2" stroke-miterlimit="10" x1="144.725" y1="476.901" x2="144.725" y2="394.743"/>
		
			<line fill="none" stroke="#000000" stroke-width="1.2" stroke-miterlimit="10" x1="310.328" y1="628.608" x2="310.328" y2="560.274"/>
		
			<line fill="none" stroke="#000000" stroke-width="1.2" stroke-miterlimit="10" x1="61.925" y1="628.608" x2="61.925" y2="560.274"/>
		
			<line fill="none" stroke="#000000" stroke-width="1.2" stroke-miterlimit="10" x1="393.124" y1="476.901" x2="393.124" y2="394.743"/>
		
			<line fill="none" stroke="#000000" stroke-width="1.2" stroke-miterlimit="10" x1="641.526" y1="476.901" x2="641.526" y2="394.743"/>
		
			<line fill="none" stroke="#000000" stroke-width="1.2" stroke-miterlimit="10" x1="807.136" y1="394.632" x2="807.136" y2="312.326"/>
		
			<line fill="none" stroke="#000000" stroke-width="1.2" stroke-miterlimit="10" x1="889.938" y1="476.901" x2="889.938" y2="394.743"/>
		
			<line fill="none" stroke="#000000" stroke-width="1.2" stroke-miterlimit="10" x1="227.526" y1="560.274" x2="227.526" y2="479.51"/>
		
			<line fill="none" stroke="#000000" stroke-width="1.2" stroke-miterlimit="10" x1="475.927" y1="560.274" x2="475.927" y2="477.454"/>
		
			<line fill="none" stroke="#000000" stroke-width="1.2" stroke-miterlimit="10" x1="724.327" y1="560.274" x2="724.327" y2="477.454"/>
		
			<line fill="none" stroke="#000000" stroke-width="1.2" stroke-miterlimit="10" x1="807.128" y1="628.608" x2="807.128" y2="560.274"/>
		
			<line fill="none" stroke="#000000" stroke-width="1.2" stroke-miterlimit="10" x1="972.739" y1="560.274" x2="972.739" y2="477.454"/>
		
			<line fill="none" stroke="#000000" stroke-width="1.2" stroke-miterlimit="10" x1="103.324" y1="228.989" x2="103.324" y2="146.168"/>
		
			<line fill="none" stroke="#000000" stroke-width="1.2" stroke-miterlimit="10" x1="186.124" y1="311.812" x2="186.124" y2="228.989"/>
		
			<line fill="none" stroke="#000000" stroke-width="1.2" stroke-miterlimit="10" x1="351.725" y1="228.989" x2="351.725" y2="146.168"/>
		
			<line fill="none" stroke="#000000" stroke-width="1.2" stroke-miterlimit="10" x1="600.126" y1="228.989" x2="600.126" y2="146.168"/>
		
			<line fill="none" stroke="#000000" stroke-width="1.2" stroke-miterlimit="10" x1="765.726" y1="228.989" x2="765.726" y2="146.168"/>
		
			<line fill="none" stroke="#000000" stroke-width="1.2" stroke-miterlimit="10" x1="848.528" y1="311.812" x2="848.528" y2="228.989"/>
		
			<line fill="none" stroke="#000000" stroke-width="1.2" stroke-miterlimit="10" x1="393.124" y1="228.989" x2="393.124" y2="-4.965"/>
		
			<line fill="none" stroke="#000000" stroke-width="1.2" stroke-miterlimit="10" x1="475.927" y1="228.989" x2="475.927" y2="-4.965"/>
		
			<line fill="none" stroke="#000000" stroke-width="1.2" stroke-miterlimit="10" x1="641.536" y1="228.989" x2="641.536" y2="-4.965"/>
		
			<line fill="none" stroke="#000000" stroke-width="1.2" stroke-miterlimit="10" x1="807.136" y1="311.871" x2="807.136" y2="-4.965"/>
		
			<line fill="none" stroke="#000000" stroke-width="1.2" stroke-miterlimit="10" x1="889.938" y1="311.871" x2="889.938" y2="-4.965"/>
		
			<line fill="none" stroke="#000000" stroke-width="1.2" stroke-miterlimit="10" x1="972.729" y1="311.871" x2="972.729" y2="-4.965"/>
		
			<line fill="none" stroke="#000000" stroke-width="1.2" stroke-miterlimit="10" x1="558.727" y1="228.989" x2="558.727" y2="-4.965"/>
		<path fill="none" stroke="#000000" stroke-width="1.2" stroke-miterlimit="10" d="M682.935,242.804"/>
		<path fill="none" stroke="#000000" stroke-width="1.2" stroke-miterlimit="10" d="M682.935,311.812"/>
		
			<line fill="none" stroke="#000000" stroke-width="1.2" stroke-miterlimit="10" x1="103.324" y1="628.594" x2="103.324" y2="312.883"/>
		
			<line fill="none" stroke="#000000" stroke-width="1.2" stroke-miterlimit="10" x1="20.524" y1="627.754" x2="20.524" y2="311.871"/>
		
			<line fill="none" stroke="#000000" stroke-width="1.2" stroke-miterlimit="10" x1="600.126" y1="628.594" x2="600.126" y2="394.743"/>
		
			<line fill="none" stroke="#000000" stroke-width="1.2" stroke-miterlimit="10" x1="765.726" y1="627.95" x2="765.726" y2="311.779"/>
		
			<line fill="none" stroke="#000000" stroke-width="1.2" stroke-miterlimit="10" x1="848.528" y1="628.594" x2="848.528" y2="311.779"/>
		
			<line fill="none" stroke="#000000" stroke-width="1.2" stroke-miterlimit="10" x1="931.335" y1="628.594" x2="931.335" y2="311.779"/>
		
			<line fill="none" stroke="#000000" stroke-width="1.2" stroke-miterlimit="10" x1="1014.128" y1="628.594" x2="1014.128" y2="311.779"/>
		
			<line fill="none" stroke="#000000" stroke-width="1.2" stroke-miterlimit="10" x1="682.927" y1="628.594" x2="682.927" y2="394.711"/>
		
			<line fill="none" stroke="#000000" stroke-width="1.2" stroke-miterlimit="10" x1="517.324" y1="628.594" x2="517.324" y2="394.743"/>
		
			<line fill="none" stroke="#000000" stroke-width="1.2" stroke-miterlimit="10" x1="558.712" y1="628.608" x2="558.712" y2="560.274"/>
		
			<line fill="none" stroke="#000000" stroke-width="1.2" stroke-miterlimit="10" x1="434.527" y1="628.594" x2="434.527" y2="394.743"/>
		
			<line fill="none" stroke="#000000" stroke-width="1.2" stroke-miterlimit="10" x1="351.725" y1="628.594" x2="351.725" y2="394.743"/>
		
			<line fill="none" stroke="#000000" stroke-width="0.35" stroke-miterlimit="10" x1="462.124" y1="628.594" x2="462.124" y2="394.743"/>
		
			<line fill="none" stroke="#000000" stroke-width="0.35" stroke-miterlimit="10" x1="379.324" y1="228.989" x2="379.324" y2="-4.965"/>
		
			<line fill="none" stroke="#000000" stroke-width="0.35" stroke-miterlimit="10" x1="544.931" y1="228.989" x2="544.931" y2="-4.98"/>
		
			<line fill="none" stroke="#000000" stroke-width="0.35" stroke-miterlimit="10" x1="627.729" y1="228.989" x2="627.737" y2="-4.98"/>
		
			<line fill="none" stroke="#000000" stroke-width="0.35" stroke-miterlimit="10" x1="710.53" y1="228.989" x2="710.54" y2="-4.98"/>
		
			<line fill="none" stroke="#000000" stroke-width="1.2" stroke-miterlimit="10" x1="310.328" y1="394.632" x2="310.328" y2="-4.909"/>
	</g>
	<g id="begrenzungsrahmen_1_">
		<g>
			<path d="M1041.382-5.32v634.262H-6.728V-5.32H1041.382 M1041.731-5.669H-7.077v634.961h1048.81L1041.731-5.669L1041.731-5.669z"
				/>
		</g>
	</g>
</g>
</svg>
